G04 #@! TF.Part,Single*
G04 #@! TF.FileFunction,Copper,L2,Bot *
G04 #@! TF.FilePolarity,Positive *
%FSLAX35Y35*%
%MOIN*%
G04 #@! TA.AperFunction,SMDPad,CuDef*
%ADD18R,0.06693X0.35433*%
G04 #@! TA.AperFunction,ComponentPad*
%ADD16R,0.06496X0.06496*%
G04 #@! TD.AperFunction*
%ADD10C,0.00500*%
%ADD11C,0.01000*%
%ADD12C,0.01500*%
G04 #@! TA.AperFunction,ViaPad*
%ADD13C,0.02677*%
%ADD15C,0.03200*%
G04 #@! TD.AperFunction*
%ADD14C,0.05000*%
G04 #@! TA.AperFunction,ComponentPad*
%ADD117C,0.05118*%
%ADD17C,0.06496*%
X0Y0D02*
D02*
D10*
X139638Y212238D02*
Y50844D01*
X150214*
G75*
G02X150208Y50957I1097J114*
G01*
Y69565*
G75*
G02X150531Y70345I1102*
G01*
X166557Y86371*
Y111043*
X157021Y120579*
G75*
G02X156698Y121359I780J780*
G01*
Y128449*
G75*
G03Y128453I-101508J2*
G01*
G75*
G02X157021Y129232I1102*
G01*
X155047Y131206*
G75*
G02X154576Y132341I1131J1135*
G01*
Y192621*
G75*
G02X155047Y193756I1602*
G01*
X159536Y198245*
G75*
G02X160671Y198717I1135J-1131*
G01*
X165646*
G75*
G02X171431Y199101I3012J-1602*
G01*
G75*
G02X171920Y199215I489J-989*
G01*
X174400*
X173393Y200222*
G75*
G02X172922Y201357I1131J1135*
G01*
Y206934*
X171745Y208110*
X161828*
G75*
G02X155404Y209713I-3012J1602*
G01*
G75*
G02X156522Y212238I3411*
G01*
X139638*
X145164Y197114D02*
G75*
G02X152782I3809D01*
G01*
G75*
G02X145164I-3809*
G01*
X160355Y100286D02*
G75*
G02X165542Y91459I-4917J-8827D01*
G01*
G75*
G02X145333I-10104*
G01*
G75*
G02X151425Y100732I10104*
G01*
G75*
G02X147538Y107994I4839J7262*
G01*
G75*
G02X164991I8726*
G01*
G75*
G02X160355Y100286I-8726*
G01*
X139888Y99037D02*
G36*
Y51094D01*
X150208*
Y69565*
Y69566*
G75*
G02X150531Y70345I1102*
G01*
X166557Y86371*
Y99037*
X162120*
G75*
G02X165542Y91459I-6683J-7579*
G01*
G75*
G02X145333I-10104*
G01*
G75*
G02X148755Y99037I10105J0*
G01*
X139888*
G37*
Y197114D02*
G36*
Y99037D01*
X148755*
G75*
G02X151425Y100732I6683J-7579*
G01*
G75*
G02X147538Y107994I4839J7262*
G01*
G75*
G02X164991I8726*
G01*
Y107994*
G75*
G02X160355Y100286I-8726*
G01*
G75*
G02X162120Y99037I-4919J-8828*
G01*
X166557*
Y111043*
X157021Y120579*
G75*
G02X156698Y121358I779J779*
G01*
Y121359*
Y128449*
Y128453*
Y128453*
G75*
G02X157021Y129232I1102*
G01*
X155047Y131206*
G75*
G02X154576Y132341I1130J1135*
G01*
Y132341*
Y192621*
Y192622*
G75*
G02X155047Y193756I1602*
G01*
X158405Y197114*
X152782*
G75*
G02X145164I-3809*
G01*
X139888*
G37*
Y211988D02*
G36*
Y197114D01*
X145164*
G75*
G02X152782I3809*
G01*
X158405*
X159536Y198245*
G75*
G02X160671Y198717I1135J-1130*
G01*
X165646*
G75*
G02X171431Y199101I3012J-1602*
G01*
G75*
G02X171920Y199215I487J-982*
G01*
X174150*
Y199465*
X173393Y200222*
G75*
G02X172922Y201357I1130J1135*
G01*
Y201357*
Y206934*
X171745Y208110*
X161828*
G75*
G02X155404Y209712I-3012J1602*
G01*
Y209713*
G75*
G02X156274Y211988I3412J0*
G01*
X139888*
G37*
X142450Y9569D02*
X389310D01*
G75*
G03X394807Y15066J5497*
G01*
Y214707*
X137170*
Y14849*
G75*
G03X142450Y9569I5280*
G01*
X151311Y69565D02*
Y50957D01*
X170905*
Y71188*
X179267Y79550*
Y121983*
X167785Y133465*
Y188628*
X170406Y191248*
X273618*
X274866Y192496*
Y196989*
X273743Y198113*
X171920*
G75*
G02X165646Y195512I-3262J-998*
G01*
X161440*
X157800Y191872*
Y132985*
X160123Y130663*
G75*
G02X162368Y128472I54J-2190*
G01*
G75*
G02X157997Y128256I-2191*
G01*
X157800Y128453*
Y121359*
X167660Y111499*
Y85915*
X151311Y69565*
G36*
Y50957*
X170905*
Y71188*
X179267Y79550*
Y121983*
X167785Y133465*
Y188628*
X170406Y191248*
X273618*
X274866Y192496*
Y196989*
X273743Y198113*
X171920*
G75*
G02X165646Y195512I-3262J-998*
G01*
X161440*
X157800Y191872*
Y132985*
X160123Y130663*
G75*
G02X162368Y128472I54J-2190*
G01*
G75*
G02X157997Y128256I-2191*
G01*
X157800Y128453*
Y121359*
X167660Y111499*
Y85915*
X151311Y69565*
G37*
X161109Y212238D02*
G75*
G02X161828Y211315I-2293J-2526D01*
G01*
X172409*
G75*
G02X173544Y210844J-1602*
G01*
X175655Y208733*
G75*
G02X176126Y207598I-1131J-1135*
G01*
Y202021*
X176935Y201213*
X274242*
G75*
G02X275377Y200741J-1602*
G01*
X277744Y198374*
G75*
G02X278215Y197239I-1131J-1135*
G01*
Y170801*
X289113Y181700*
Y198237*
G75*
G02X289510Y199195I1353*
G01*
X289789Y199473*
G75*
G02X289773Y199735I2176J262*
G01*
G75*
G02X294155I2191*
G01*
G75*
G02X291817Y197549I-2191*
G01*
Y186082*
G75*
G02X295637Y184897I1644J-1448*
G01*
G75*
G02X297504Y186075I1943J-1012*
G01*
X297820Y186391*
G75*
G02X298956Y186860I1133J-1133*
G01*
X304194*
G75*
G02X305330Y186389J-1602*
G01*
X308820Y182898*
G75*
G02X309291Y181763I-1131J-1135*
G01*
Y177291*
X311754Y179754*
G75*
G02X311738Y180016I2175J262*
G01*
G75*
G02X316120I2191*
G01*
G75*
G02X313667Y177841I-2191*
G01*
X311537Y175712*
Y100843*
G75*
G02X314448Y101180I1643J-1450*
G01*
Y104198*
G75*
G02X313860Y105693I1602J1494*
G01*
G75*
G02X318242I2191*
G01*
G75*
G02X317653Y104198I-2191*
G01*
Y57022*
G75*
G02X317591Y56580I-1602*
G01*
Y50844*
X324386*
Y55341*
G75*
G02X323798Y56835I1602J1494*
G01*
G75*
G02X328180I2191*
G01*
G75*
G02X327591Y55341I-2191*
G01*
Y50844*
X392339*
Y212238*
X161109*
X335765Y117724D02*
G75*
G02X344761I4498D01*
G01*
G75*
G02X335765I-4498*
G01*
X336162Y77724D02*
G75*
G02X344363I4100D01*
G01*
G75*
G02X336162I-4100*
G01*
Y87724D02*
G75*
G02X344363I4100D01*
G01*
G75*
G02X336162I-4100*
G01*
Y97724D02*
G75*
G02X344363I4100D01*
G01*
G75*
G02X336162I-4100*
G01*
Y107724D02*
G75*
G02X344363I4100D01*
G01*
G75*
G02X336162I-4100*
G01*
X336162Y131825D02*
X344363D01*
Y123624*
X336162*
Y131825*
X376706Y202243D02*
G75*
G02X377956Y200993J-1250D01*
G01*
Y188493*
G75*
G02X376706Y187243I-1250*
G01*
X351206*
G75*
G02X349956Y188493J1250*
G01*
Y193243*
X341206*
G75*
G02X339956Y194493J1250*
G01*
Y200993*
G75*
G02X341206Y202243I1250*
G01*
X376706*
X381202Y81525D02*
G75*
G02X386644Y72561I-4663J-8964D01*
G01*
G75*
G02X366435I-10104*
G01*
G75*
G02X370964Y80988I10104*
G01*
G75*
G02X366987Y88309I4749J7321*
G01*
G75*
G02X384439I8726*
G01*
G75*
G02X381202Y81525I-8726J0*
G01*
X318228Y102389D02*
G75*
G02X322610I2191D01*
G01*
G75*
G02X321771Y100665I-2191*
G01*
Y64425*
G75*
G02X322610Y62701I-1352J-1724*
G01*
G75*
G02X318228I-2191*
G01*
G75*
G02X319067Y64425I2191*
G01*
Y100665*
G75*
G02X318228Y102389I1352J1724*
G01*
X317591Y56580D02*
G36*
Y51094D01*
X324386*
Y55341*
G75*
G02X323798Y56835I1602J1494*
G01*
G75*
G02X328180I2191*
G01*
G75*
G02X327591Y55341I-2191*
G01*
Y51094*
X392089*
Y77724*
X385226*
G75*
G02X386644Y72561I-8686J-5163*
G01*
G75*
G02X366435I-10104*
G01*
G75*
G02X367854Y77724I10105J0*
G01*
X344363*
G75*
G02X336162I-4100*
G01*
X321771*
Y64425*
G75*
G02X322610Y62701I-1354J-1724*
G01*
G75*
G02X318228I-2191*
G01*
G75*
G02X319067Y64425I2192J-1*
G01*
Y77724*
X317653*
Y57022*
G75*
G02X317591Y56580I-1615J2*
G01*
G37*
X317653Y87724D02*
G36*
Y77724D01*
X319067*
Y87724*
X317653*
G37*
X321771D02*
G36*
Y77724D01*
X336162*
G75*
G02X344363I4100*
G01*
X367854*
G75*
G02X370964Y80988I8686J-5162*
G01*
G75*
G02X367006Y87724I4749J7321*
G01*
X344363*
G75*
G02X336162I-4100*
G01*
X321771*
G37*
X384420D02*
G36*
G75*
G02X381202Y81525I-8708J586D01*
G01*
G75*
G02X385226Y77724I-4663J-8964*
G01*
X392089*
Y87724*
X384420*
G37*
X317653Y97724D02*
G36*
Y87724D01*
X319067*
Y97724*
X317653*
G37*
X321771D02*
G36*
Y87724D01*
X336162*
G75*
G02X344363I4100*
G01*
X367006*
G75*
G02X366987Y88309I8708J586*
G01*
G75*
G02X384439I8726*
G01*
G75*
G02X384420Y87724I-8728J0*
G01*
X392089*
Y97724*
X344363*
G75*
G02X336162I-4100*
G01*
X321771*
G37*
X311537Y107724D02*
G36*
Y100843D01*
G75*
G02X314448Y101180I1643J-1450*
G01*
Y104198*
G75*
G02X313860Y105693I1602J1494*
G01*
G75*
G02X315229Y107724I2191*
G01*
X311537*
G37*
X317653Y104198D02*
G36*
Y97724D01*
X319067*
Y100665*
G75*
G02X318228Y102389I1354J1724*
G01*
G75*
G02X322610I2191*
G01*
G75*
G02X321771Y100665I-2192J1*
G01*
Y97724*
X336162*
G75*
G02X344363I4100*
G01*
X392089*
Y107724*
X344363*
G75*
G02X336162I-4100*
G01*
X316872*
G75*
G02X318242Y105693I-822J-2031*
G01*
G75*
G02X317653Y104198I-2191*
G01*
G37*
X311537Y117724D02*
G36*
Y107724D01*
X315229*
G75*
G02X316872I822J-2031*
G01*
X336162*
G75*
G02X344363I4100*
G01*
X392089*
Y117724*
X344761*
G75*
G02X335765I-4498*
G01*
X311537*
G37*
Y127724D02*
G36*
Y117724D01*
X335765*
G75*
G02X344761I4498*
G01*
X392089*
Y127724*
X344363*
Y123624*
X336162*
Y127724*
X311537*
G37*
X278215Y194743D02*
G36*
Y170801D01*
X289113Y181700*
Y194743*
X278215*
G37*
X291817D02*
G36*
Y186082D01*
G75*
G02X295637Y184897I1644J-1448*
G01*
G75*
G02X297504Y186075I1943J-1012*
G01*
X297820Y186391*
G75*
G02X298956Y186860I1133J-1132*
G01*
X304194*
G75*
G02X305330Y186389I0J-1602*
G01*
X308820Y182898*
G75*
G02X309291Y181764I-1130J-1135*
G01*
Y181763*
Y177291*
X311754Y179754*
G75*
G02X311738Y180016I2181J263*
G01*
G75*
G02X316120I2191*
G01*
G75*
G02X313667Y177841I-2191*
G01*
X311537Y175712*
Y127724*
X336162*
Y131825*
X344363*
Y127724*
X392089*
Y194743*
X377956*
Y188493*
G75*
G02X376706Y187243I-1250*
G01*
X351206*
G75*
G02X349956Y188493J1250*
G01*
Y193243*
X341206*
G75*
G02X339956Y194493J1250*
G01*
Y194743*
X291817*
G37*
X161359Y211988D02*
G36*
Y211986D01*
G75*
G02X161828Y211315I-2543J-2274*
G01*
X172409*
G75*
G02X173544Y210844I0J-1602*
G01*
X175655Y208733*
G75*
G02X176126Y207598I-1130J-1135*
G01*
Y207598*
Y202021*
X176935Y201213*
X274242*
G75*
G02X275377Y200741I0J-1602*
G01*
X277744Y198374*
G75*
G02X278215Y197239I-1130J-1135*
G01*
Y197239*
Y194743*
X289113*
Y198237*
G75*
G02X289510Y199195I1355J-1*
G01*
X289789Y199473*
G75*
G02X289773Y199735I2168J262*
G01*
G75*
G02X294155I2191*
G01*
G75*
G02X291817Y197549I-2191*
G01*
Y194743*
X339956*
Y200993*
G75*
G02X341206Y202243I1250*
G01*
X376706*
G75*
G02X377956Y200993J-1250*
G01*
Y194743*
X392089*
Y211988*
X161359*
G37*
X168887Y188171D02*
Y133921D01*
X180046Y122762*
G75*
G02X180369Y121983I-780J-780*
G01*
Y79550*
G75*
G02X180046Y78770I-1102*
G01*
X172007Y70731*
Y50957*
G75*
G02X172001Y50844I-1103J2*
G01*
X194386*
Y58583*
G75*
G02X194857Y59718I1602*
G01*
X216852Y81713*
Y108379*
G75*
G02X217324Y109514I1602*
G01*
X219854Y112045*
Y115122*
G75*
G02X219848Y118103I1602J1494*
G01*
Y144859*
G75*
G02X219058Y143597I-2141J462*
G01*
Y123598*
G75*
G02X218661Y122641I-1352*
G01*
X208274Y112254*
G75*
G02X204455Y110544I-2175J-263*
G01*
Y106098*
X205836Y104718*
G75*
G02X208290Y102543I263J-2175*
G01*
G75*
G02X205678Y100393I-2191*
G01*
G75*
G02Y98394I-1950J-1000*
G01*
G75*
G02X208290Y96244I422J-2150*
G01*
G75*
G02X205224Y94235I-2191*
G01*
G75*
G02X201630Y91742I-1870J-1141*
G01*
X196489*
G75*
G02X195661Y92025J1352*
G01*
X199539Y88147*
X201380*
G75*
G02X205295Y86795I1724J-1352*
G01*
G75*
G02X201380Y85443I-2191*
G01*
X198979*
G75*
G02X198021Y85840J1352*
G01*
X190168Y93693*
G75*
G02X189770Y94651I955J957*
G01*
Y143637*
X171572Y161836*
G75*
G02X171175Y162793I955J957*
G01*
Y163297*
G75*
G02X173111Y167057I1477J1618*
G01*
G75*
G02X173082Y167411I2161J354*
G01*
G75*
G02X177464I2191*
G01*
G75*
G02X177435Y167057I-2190*
G01*
G75*
G02X180069Y164652I458J-2143*
G01*
X196448Y148275*
G75*
G02X196845Y147318I-955J-957*
G01*
Y118260*
X205496Y126911*
Y152060*
G75*
G02X205893Y153018I1352*
G01*
X211237Y158361*
Y173051*
G75*
G02X213532Y176752I1352J1724*
G01*
G75*
G02X216441Y179537I2052J768*
G01*
G75*
G02X219848Y181800I2139J477*
G01*
Y182266*
G75*
G02X219259Y183760I1602J1494*
G01*
G75*
G02X223641I2191*
G01*
G75*
G02X223614Y183420I-2191J1*
G01*
G75*
G02X226886Y181514I1081J-1906*
G01*
G75*
G02X226869Y181244I-2190J-2*
G01*
G75*
G02X229968Y178862I946J-1976*
G01*
G75*
G02X232287Y175172I967J-1966*
G01*
Y115945*
G75*
G02X232258Y112521I-1382J-1700*
G01*
Y111749*
G75*
G02X231861Y110791I-1352*
G01*
X225672Y104604*
Y102387*
X235602Y112317*
Y115247*
G75*
G02X235948Y118535I1602J1494*
G01*
Y172052*
G75*
G02X235109Y173776I1352J1724*
G01*
G75*
G02X239491I2191*
G01*
G75*
G02X238652Y172052I-2191*
G01*
Y118385*
G75*
G02X238807Y115247I-1448J-1644*
G01*
Y111654*
G75*
G02X238336Y110519I-1602*
G01*
X227920Y100102*
Y98328*
X242152Y112559*
Y115017*
G75*
G02X242152Y118465I1352J1724*
G01*
Y166436*
G75*
G02X241313Y168160I1352J1724*
G01*
G75*
G02X245695I2191*
G01*
G75*
G02X245419Y167094I-2191J0*
G01*
G75*
G02X248739Y164596I1242J-1805*
G01*
G75*
G02X251133Y160945I1042J-1928*
G01*
Y159272*
G75*
G02X251321Y159507I1144J-722*
G01*
X255043Y163229*
Y175337*
X248795Y181585*
G75*
G02X246341Y183760I-263J2175*
G01*
G75*
G02X250280Y185082I2191*
G01*
G75*
G02X253794Y185056I1747J-1322*
G01*
G75*
G02X257821Y183622I1852J-1171*
G01*
X270954Y170490*
G75*
G02X271351Y169533I-955J-957*
G01*
Y148377*
X273763Y145965*
Y157552*
G75*
G02X274234Y158687I1602*
G01*
X275011Y159463*
Y191082*
X274397Y190469*
G75*
G02X273617Y190146I-780J780*
G01*
X170862*
X168887Y188171*
G36*
Y133921*
X180046Y122762*
G75*
G02X180369Y121983I-780J-780*
G01*
Y79550*
G75*
G02X180046Y78770I-1102*
G01*
X172007Y70731*
Y50957*
G75*
G02X172001Y50844I-1103J2*
G01*
X194386*
Y58583*
G75*
G02X194857Y59718I1602*
G01*
X216852Y81713*
Y108379*
G75*
G02X217324Y109514I1602*
G01*
X219854Y112045*
Y115122*
G75*
G02X219848Y118103I1602J1494*
G01*
Y144859*
G75*
G02X219058Y143597I-2141J462*
G01*
Y123598*
G75*
G02X218661Y122641I-1352*
G01*
X208274Y112254*
G75*
G02X204455Y110544I-2175J-263*
G01*
Y106098*
X205836Y104718*
G75*
G02X208290Y102543I263J-2175*
G01*
G75*
G02X205678Y100393I-2191*
G01*
G75*
G02Y98394I-1950J-1000*
G01*
G75*
G02X208290Y96244I422J-2150*
G01*
G75*
G02X205224Y94235I-2191*
G01*
G75*
G02X201630Y91742I-1870J-1141*
G01*
X196489*
G75*
G02X195661Y92025J1352*
G01*
X199539Y88147*
X201380*
G75*
G02X205295Y86795I1724J-1352*
G01*
G75*
G02X201380Y85443I-2191*
G01*
X198979*
G75*
G02X198021Y85840J1352*
G01*
X190168Y93693*
G75*
G02X189770Y94651I955J957*
G01*
Y143637*
X171572Y161836*
G75*
G02X171175Y162793I955J957*
G01*
Y163297*
G75*
G02X173111Y167057I1477J1618*
G01*
G75*
G02X173082Y167411I2161J354*
G01*
G75*
G02X177464I2191*
G01*
G75*
G02X177435Y167057I-2190*
G01*
G75*
G02X180069Y164652I458J-2143*
G01*
X196448Y148275*
G75*
G02X196845Y147318I-955J-957*
G01*
Y118260*
X205496Y126911*
Y152060*
G75*
G02X205893Y153018I1352*
G01*
X211237Y158361*
Y173051*
G75*
G02X213532Y176752I1352J1724*
G01*
G75*
G02X216441Y179537I2052J768*
G01*
G75*
G02X219848Y181800I2139J477*
G01*
Y182266*
G75*
G02X219259Y183760I1602J1494*
G01*
G75*
G02X223641I2191*
G01*
G75*
G02X223614Y183420I-2191J1*
G01*
G75*
G02X226886Y181514I1081J-1906*
G01*
G75*
G02X226869Y181244I-2190J-2*
G01*
G75*
G02X229968Y178862I946J-1976*
G01*
G75*
G02X232287Y175172I967J-1966*
G01*
Y115945*
G75*
G02X232258Y112521I-1382J-1700*
G01*
Y111749*
G75*
G02X231861Y110791I-1352*
G01*
X225672Y104604*
Y102387*
X235602Y112317*
Y115247*
G75*
G02X235948Y118535I1602J1494*
G01*
Y172052*
G75*
G02X235109Y173776I1352J1724*
G01*
G75*
G02X239491I2191*
G01*
G75*
G02X238652Y172052I-2191*
G01*
Y118385*
G75*
G02X238807Y115247I-1448J-1644*
G01*
Y111654*
G75*
G02X238336Y110519I-1602*
G01*
X227920Y100102*
Y98328*
X242152Y112559*
Y115017*
G75*
G02X242152Y118465I1352J1724*
G01*
Y166436*
G75*
G02X241313Y168160I1352J1724*
G01*
G75*
G02X245695I2191*
G01*
G75*
G02X245419Y167094I-2191J0*
G01*
G75*
G02X248739Y164596I1242J-1805*
G01*
G75*
G02X251133Y160945I1042J-1928*
G01*
Y159272*
G75*
G02X251321Y159507I1144J-722*
G01*
X255043Y163229*
Y175337*
X248795Y181585*
G75*
G02X246341Y183760I-263J2175*
G01*
G75*
G02X250280Y185082I2191*
G01*
G75*
G02X253794Y185056I1747J-1322*
G01*
G75*
G02X257821Y183622I1852J-1171*
G01*
X270954Y170490*
G75*
G02X271351Y169533I-955J-957*
G01*
Y148377*
X273763Y145965*
Y157552*
G75*
G02X274234Y158687I1602*
G01*
X275011Y159463*
Y191082*
X274397Y190469*
G75*
G02X273617Y190146I-780J780*
G01*
X170862*
X168887Y188171*
G37*
X238557Y96212D02*
Y86515D01*
G75*
G02X239021Y86017I-1352J-1724*
G01*
G75*
G02X239399Y86747I1333J-226*
G01*
X242767Y90115*
G75*
G02X243724Y90512I957J-955*
G01*
X253588*
X266400Y103323*
Y109588*
G75*
G02X263654Y112993I-1269J1786*
G01*
Y143472*
G75*
G02X262815Y145196I1352J1724*
G01*
G75*
G02X266400Y146887I2191*
G01*
Y167100*
X257747Y175753*
Y162669*
G75*
G02X257350Y161711I-1352*
G01*
X253629Y157990*
Y111844*
G75*
G02X253231Y110887I-1352*
G01*
X238557Y96212*
G36*
Y86515*
G75*
G02X239021Y86017I-1352J-1724*
G01*
G75*
G02X239399Y86747I1333J-226*
G01*
X242767Y90115*
G75*
G02X243724Y90512I957J-955*
G01*
X253588*
X266400Y103323*
Y109588*
G75*
G02X263654Y112993I-1269J1786*
G01*
Y143472*
G75*
G02X262815Y145196I1352J1724*
G01*
G75*
G02X266400Y146887I2191*
G01*
Y167100*
X257747Y175753*
Y162669*
G75*
G02X257350Y161711I-1352*
G01*
X253629Y157990*
Y111844*
G75*
G02X253231Y110887I-1352*
G01*
X238557Y96212*
G37*
X373956Y195680D02*
X376456D01*
X374268Y197868*
X373956Y198493*
X374268Y199118*
X374893Y199430*
X375830*
X376456Y199118*
X371143Y195993D02*
X370518Y195680D01*
X369893*
X369268Y195993*
X368956Y196618*
Y198493*
X369268Y199118*
X369893Y199430*
X370518*
X371143Y199118*
X371456Y198493*
Y196618*
X371143Y195993*
X369268Y199118*
X363956Y195680D02*
X366456D01*
X364268Y197868*
X363956Y198493*
X364268Y199118*
X364893Y199430*
X365830*
X366456Y199118*
X360830Y195680D02*
X359580D01*
X360206D02*
Y199430D01*
X360830Y198806*
X356456Y195680D02*
X353330Y199430D01*
X351143Y195993D02*
X350518Y195680D01*
X349893*
X349268Y195993*
X348956Y196618*
Y198493*
X349268Y199118*
X349893Y199430*
X350518*
X351143Y199118*
X351456Y198493*
Y196618*
X351143Y195993*
X349268Y199118*
X344893Y195680D02*
Y199430D01*
X346456Y196930*
X343956*
X376456Y189680D02*
Y193430D01*
X374268*
X373643Y193118*
X373330Y192493*
X373643Y191868*
X374268Y191556*
X376456*
X374268D02*
X373330Y189680D01*
X368956Y189993D02*
X369268Y189680D01*
X369893*
X370518*
X371143Y189993*
X371456Y190618*
Y191556*
X371143Y191868*
X370518Y192180*
X369893*
X369268Y191868*
X368956Y191556*
Y191243*
X369268Y190930*
X369893Y190618*
X370518*
X371143Y190930*
X371456Y191243*
X366456Y192180D02*
X365206Y189680D01*
X363956Y192180*
X359893Y189680D02*
X359580Y189993D01*
X359893Y190306*
X360206Y189993*
X359893Y189680*
Y191243D02*
X359580Y191556D01*
X359893Y191868*
X360206Y191556*
X359893Y191243*
X354268Y191556D02*
X353643Y191243D01*
X353330Y190618*
X353643Y189993*
X354268Y189680*
X356456*
Y193430*
X354268*
X353643Y193118*
X353330Y192493*
X353643Y191868*
X354268Y191556*
X356456*
D02*
D11*
X146914Y197114D02*
X144914D01*
X148973Y195055D02*
Y193055D01*
Y199173D02*
Y201173D01*
X151032Y197114D02*
X153032D01*
X172652Y164915D02*
X172527D01*
Y162793*
X191123Y144198*
Y94651*
X198979Y86795*
X203104*
X195989Y56835D02*
Y58583D01*
X218455Y81049*
Y108379*
X221457Y111381*
Y116616*
X201606Y60080D02*
X220327Y78801D01*
Y107131*
X224606Y111411*
Y114120*
X203354Y93094D02*
X196489D01*
Y93528*
X193369Y96648*
Y145695*
X175273Y163792*
Y167411*
X205989Y57210D02*
Y59207D01*
X222448Y75667*
Y106133*
X227756Y111440*
Y116616*
X206099Y96244D02*
X197892D01*
X195491Y98644*
Y147318*
X177894Y164915*
X212589Y174774D02*
Y157801D01*
X206848Y152060*
Y126351*
X197737Y117240*
Y101141*
X199485Y99393*
X212839Y148191D02*
Y123730D01*
X203104Y113995*
Y105538*
X206099Y102543*
X215584Y177520D02*
Y155929D01*
X209968Y150313*
Y125103*
X200483Y115618*
Y102638*
X203728Y99393*
X215989Y54339D02*
Y59831D01*
X226317Y70159*
Y100766*
X237205Y111654*
Y116741*
X217706Y145321D02*
Y123598D01*
X206099Y111992*
X218580Y180013D02*
Y153932D01*
X212839Y148191*
X221450Y183760D02*
Y116623D01*
X224695Y181514D02*
Y114209D01*
X224606Y114120*
X227815Y179267D02*
Y116675D01*
X227756Y116616*
X230906Y114245D02*
Y111749D01*
X224320Y105164*
Y72186*
X211840Y59706*
X230935Y176896D02*
Y114274D01*
X230906Y114245*
X236426Y70189D02*
X246036D01*
X252776Y76929*
X263134*
X237300Y173776D02*
Y116836D01*
X237205Y116741*
X243504D02*
Y111998D01*
X228439Y96933*
Y66820*
X221076Y59456*
X243504Y168160D02*
Y116741D01*
X246654Y114120D02*
Y112241D01*
X230561Y96148*
Y62951*
X230583Y62928*
X225989Y58333*
X246660Y165289D02*
Y114127D01*
X246654Y114120*
X248532Y183760D02*
X256395Y175898D01*
Y162669*
X252276Y158550*
Y111844*
X237205Y96772*
Y84791*
X249780Y162669D02*
Y116764D01*
X249803Y116741*
Y84667D02*
X256395D01*
X257643Y83419*
X263259*
X249803Y116741D02*
Y112520D01*
X232807Y95524*
Y60954*
X231185Y59331*
X252027Y183760D02*
Y183386D01*
X267752Y167661*
Y102763*
X254148Y89159*
X243724*
X240354Y85790*
Y81921*
X261137Y80423D02*
X255771D01*
X254273Y81921*
X246654*
X265006Y145196D02*
Y111624D01*
X265131Y111374*
X268002Y89944D02*
Y68458D01*
X265989Y66445*
Y56960*
X270498Y138207D02*
Y101765D01*
X255896Y87163*
X247908*
X245537Y84791*
X243504*
X270622Y57226D02*
Y96148D01*
X273243Y86788D02*
Y140703D01*
Y86788D02*
Y55712D01*
X275989Y60580D02*
Y141826D01*
X269998Y147817*
Y169533*
X255646Y183885*
X278735Y69940D02*
Y118488D01*
X281855Y121608*
Y142950*
X278984Y145695D02*
Y169657D01*
X290466Y181139*
Y198237*
X291964Y199735*
X279109Y128348D02*
Y141577D01*
X275365Y145321*
Y157552*
X276613Y158800*
Y197239*
X274242Y199610*
X176271*
X174524Y201357*
X283727Y69940D02*
Y115618D01*
X287221Y119112*
Y140329*
X285989Y57210D02*
X285973Y57225D01*
Y62077*
X286472Y62576*
Y114869*
X289967Y118363*
Y147193*
X289985*
X289093Y66695D02*
Y113496D01*
X292588Y116991*
Y136834*
X291714Y57335D02*
Y112248D01*
X294985Y115519*
Y134738*
X295708Y135461*
Y142476*
X294985Y143199*
Y147193*
X293461Y184634D02*
Y180765D01*
X284600Y171904*
Y120360*
X281231Y116991*
Y57085*
X295989D02*
X296082D01*
X302447Y63450*
Y161545*
X301449Y162544*
Y182762*
X297206Y69940D02*
Y110251D01*
X300076Y113122*
Y143199*
X299985Y143291*
Y147193*
X297580Y133090D02*
Y114245D01*
X294335Y111000*
Y66695*
X297206Y63824*
Y63700*
X304985Y147193D02*
Y75681D01*
X305942Y57210D02*
Y61204D01*
X307689Y62951*
Y181763*
X304194Y185258*
X298953*
X297580Y183885*
X313180Y99393D02*
Y62951D01*
X310934Y60704*
Y56711*
X313929Y180016D02*
X310185Y176272D01*
Y75681*
X315989Y56960D02*
X316051Y57022D01*
Y105693*
X320419Y62701D02*
Y102389D01*
X337515Y117724D02*
X335515D01*
X340263Y114976D02*
Y112976D01*
Y120472D02*
Y122472D01*
X343011Y117724D02*
X345011D01*
D02*
D12*
X168658Y197114D02*
X160671D01*
X156178Y192621*
Y132341*
X160047Y128472*
X160177*
X174524Y201357D02*
Y207598D01*
X172409Y209713*
X158816*
X195989Y31616D02*
Y56835D01*
X205989Y31616D02*
Y57210D01*
X215989Y31616D02*
Y54339D01*
X221450Y116623D02*
X221457Y116616D01*
X225989Y58333D02*
Y31616D01*
X235989D02*
Y51406D01*
X241543Y56960*
X245989Y31616D02*
Y51671D01*
X251278Y56960*
X255989Y31616D02*
Y56960D01*
X265989Y31616D02*
Y52592D01*
X270622Y57226*
X273243Y55712D02*
X275989Y52967D01*
Y31616*
X285989D02*
Y57210D01*
X295989Y31616D02*
Y57085D01*
X305989Y31616D02*
Y57163D01*
X305942Y57210*
X315989Y31616D02*
Y56960D01*
X325989Y56835D02*
Y31616D01*
D02*
D13*
X160177Y128472D03*
X172652Y164915D03*
X175273Y167411D03*
X177894Y164915D03*
X199485Y99393D03*
X201606Y60080D03*
X203104Y86795D03*
X203354Y93094D03*
X203728Y99393D03*
X206099Y96244D03*
Y102543D03*
Y111992D03*
X211840Y59706D03*
X212589Y174774D03*
X212839Y148191D03*
X215584Y177520D03*
X217706Y145321D03*
X218580Y180013D03*
X221076Y59456D03*
X221450Y183760D03*
X221457Y116616D03*
X224606Y114120D03*
X224695Y181514D03*
X227756Y116616D03*
X227815Y179267D03*
X230906Y114245D03*
X230935Y176896D03*
X231185Y59331D03*
X236426Y70189D03*
X237205Y84791D03*
Y116741D03*
X237300Y173776D03*
X240354Y81921D03*
X241543Y56960D03*
X243504Y84791D03*
Y116741D03*
Y168160D03*
X246654Y81921D03*
Y114120D03*
X246660Y165289D03*
X248532Y183760D03*
X249780Y162669D03*
X249803Y84667D03*
Y116741D03*
X251278Y56960D03*
X252027Y183760D03*
X255646Y183885D03*
X255989Y56960D03*
X261137Y80423D03*
X263134Y76929D03*
X263259Y83419D03*
X265006Y145196D03*
X265131Y111374D03*
X265989Y56960D03*
X268002Y89944D03*
X270498Y138207D03*
X270622Y96148D03*
X273243Y86788D03*
Y140703D03*
X275989Y60580D03*
X278735Y69940D03*
X278984Y145695D03*
X279109Y128348D03*
X281231Y57085D03*
X281855Y142950D03*
X283727Y69940D03*
X287221Y140329D03*
X289093Y66695D03*
X289985Y147193D03*
X291714Y57335D03*
X291964Y199735D03*
X292588Y136834D03*
X293461Y184634D03*
X294985Y147193D03*
X297206Y63700D03*
Y69940D03*
X297580Y133090D03*
Y183885D03*
X299985Y147193D03*
X301449Y182762D03*
X304985Y75681D03*
Y147193D03*
X310185Y75681D03*
X310934Y56711D03*
X313180Y99393D03*
X313929Y180016D03*
X316051Y105693D03*
X320419Y62701D03*
Y102389D03*
X325989Y56835D03*
D02*
D14*
X155989Y31616D02*
Y58457D01*
X165989*
Y31616D02*
Y58457D01*
Y72387*
X174150Y80548*
Y83169*
X173276Y84043*
Y114245*
X165039Y122482*
Y163043*
X164665*
X175989Y31616D02*
Y60422D01*
X176022Y60455*
X185989Y31616D02*
Y60188D01*
X186006Y60205*
D02*
D15*
X144985Y62207D03*
Y77207D03*
Y124707D03*
Y144707D03*
Y164707D03*
Y184707D03*
Y204707D03*
X151560Y157427D03*
X154930Y77178D03*
X164665Y163043D03*
X165413Y179143D03*
X172527Y188628D03*
X176022Y60455D03*
X181887Y70065D03*
X182511Y132217D03*
Y142700D03*
X184985Y204707D03*
X186006Y60205D03*
X187254Y80174D03*
X191872Y70065D03*
X197238Y80174D03*
X201481Y132217D03*
Y142326D03*
X224985Y204707D03*
X234055Y127724D03*
X234180Y160297D03*
X234305Y141951D03*
X240545D03*
Y160297D03*
X243790Y93028D03*
X250529D03*
X253150Y172154D03*
X256145Y140953D03*
X261886Y133964D03*
X264985Y204707D03*
X272120Y194743D03*
X304985Y204707D03*
X327533Y132716D03*
Y142450D03*
X344943Y174400D03*
X344985Y144707D03*
Y204707D03*
X359981Y64573D03*
Y84417D03*
X384985Y104707D03*
Y124707D03*
Y144707D03*
Y164707D03*
Y184707D03*
Y204707D03*
D02*
D16*
X340263Y127724D03*
D02*
D17*
Y77724D03*
Y87724D03*
Y97724D03*
Y107724D03*
Y117724D03*
D02*
D18*
X145989Y31616D03*
X155989D03*
X165989D03*
X175989D03*
X185989D03*
X195989D03*
X205989D03*
X215989D03*
X225989D03*
X235989D03*
X245989D03*
X255989D03*
X265989D03*
X275989D03*
X285989D03*
X295989D03*
X305989D03*
X315989D03*
X325989D03*
X335989D03*
X345989D03*
X355989D03*
X365989D03*
X375989D03*
X385989D03*
D02*
D117*
X148973Y197114D03*
X158816Y209713D03*
X168658Y197114D03*
X0Y0D02*
M02*
