G04 #@! TF.Part,Single*
G04 #@! TF.FileFunction,Legend,Top *
G04 #@! TF.FilePolarity,Positive *
%FSLAX35Y35*%
%MOIN*%
%ADD23C,0.00197*%
%ADD116C,0.00394*%
%ADD10C,0.00500*%
%ADD108C,0.00591*%
%ADD24C,0.00787*%
%ADD26C,0.00800*%
%ADD25C,0.01575*%
X0Y0D02*
D02*
D10*
X144391Y133155D02*
X144079Y132843D01*
X143454Y132530*
X142516*
X141891Y132843*
X141579Y133155*
X141266Y133780*
Y135030*
X141579Y135655*
X141891Y135968*
X142516Y136280*
X143454*
X144079Y135968*
X144391Y135655*
X147829Y132530D02*
Y136280D01*
X146266Y133780*
X148766*
X144391Y141143D02*
X144079Y140830D01*
X143454Y140517*
X142516*
X141891Y140830*
X141579Y141143*
X141266Y141767*
Y143017*
X141579Y143643*
X141891Y143955*
X142516Y144267*
X143454*
X144079Y143955*
X144391Y143643*
X146579Y140830D02*
X147204Y140517D01*
X147829*
X148454Y140830*
X148766Y141455*
X148454Y142080*
X147829Y142393*
X147204*
X147829D02*
X148454Y142705D01*
X148766Y143330*
X148454Y143955*
X147829Y144267*
X147204*
X146579Y143955*
X144576Y173966D02*
X144264Y173653D01*
X143639Y173341*
X142701*
X142076Y173653*
X141764Y173966*
X141451Y174591*
Y175841*
X141764Y176466*
X142076Y176778*
X142701Y177091*
X143639*
X144264Y176778*
X144576Y176466*
X148951Y173341D02*
X146451D01*
X148639Y175528*
X148951Y176153*
X148639Y176778*
X148014Y177091*
X147076*
X146451Y176778*
X144701Y181953D02*
X144389Y181641D01*
X143763Y181328*
X142826*
X142201Y181641*
X141889Y181953*
X141576Y182578*
Y183828*
X141889Y184453*
X142201Y184766*
X142826Y185078*
X143763*
X144389Y184766*
X144701Y184453*
X147201Y181328D02*
X148451D01*
X147826D02*
Y185078D01*
X147201Y184453*
X141950Y190752D02*
X142263Y190127D01*
X142888Y189815*
X144138*
X144763Y190127*
X145076Y190752*
X144763Y191377*
X144138Y191690*
X142888*
X142263Y192002*
X141950Y192627*
X142263Y193252*
X142888Y193565*
X144138*
X144763Y193252*
X145076Y192627*
X146950Y193565D02*
X147263Y189815D01*
X148513Y191690*
X149763Y189815*
X150076Y193565*
X152576Y189815D02*
X153826D01*
X153200D02*
Y193565D01*
X152576Y192940*
X142450Y9569D02*
X389310D01*
G75*
G03X394807Y15066J5497*
G01*
Y214707*
X137170*
Y14849*
G75*
G03X142450Y9569I5280*
G01*
X163356Y149753D02*
X164606D01*
X163981D02*
Y153503D01*
X163356D02*
X164606D01*
X170543Y150378D02*
X170231Y150065D01*
X169606Y149753*
X168668*
X168043Y150065*
X167731Y150378*
X167418Y151003*
Y152253*
X167731Y152878*
X168043Y153191*
X168668Y153503*
X169606*
X170231Y153191*
X170543Y152878*
X173043Y149753D02*
X174293D01*
X173668D02*
Y153503D01*
X173043Y152878*
X170785Y168225D02*
X170472Y167912D01*
X169847Y167600*
X168910*
X168285Y167912*
X167972Y168225*
X167660Y168850*
Y170100*
X167972Y170725*
X168285Y171037*
X168910Y171350*
X169847*
X170472Y171037*
X170785Y170725*
X172660Y167912D02*
X173285Y167600D01*
X174222*
X174847Y167912*
X175160Y168537*
Y168850*
X174847Y169475*
X174222Y169787*
X172660*
Y171350*
X175160*
X188128Y116430D02*
Y120180D01*
X190315*
X190940Y119868*
X191253Y119243*
X190940Y118618*
X190315Y118306*
X188128*
X190315D02*
X191253Y116430D01*
X193753D02*
X195003D01*
X194378D02*
Y120180D01*
X193753Y119556*
X194272Y103103D02*
X188972D01*
Y115403*
X194272*
Y103103*
X196489Y66634D02*
Y70384D01*
X198677*
X199302Y70072*
X199615Y69446*
X199302Y68822*
X198677Y68509*
X196489*
X198677D02*
X199615Y66634D01*
X203989D02*
X201489D01*
X203677Y68822*
X203989Y69446*
X203677Y70072*
X203052Y70384*
X202115*
X201489Y70072*
X200488Y116931D02*
X200176Y116618D01*
X199550Y116306*
X198613*
X197988Y116618*
X197676Y116931*
X197363Y117556*
Y118806*
X197676Y119431*
X197988Y119743*
X198613Y120056*
X199550*
X200176Y119743*
X200488Y119431*
X202363Y117243D02*
X202676Y117868D01*
X203300Y118181*
X203926*
X204550Y117868*
X204863Y117243*
X204550Y116618*
X203926Y116306*
X203300*
X202676Y116618*
X202363Y117243*
Y118181*
X202676Y119118*
X203300Y119743*
X203926Y120056*
X205441Y66042D02*
Y71342D01*
X217741*
Y66042*
X205441*
X211341Y138522D02*
X211654Y138209D01*
X212278Y137896*
X212904Y138209*
X213216Y138522*
Y141646*
X213841*
X213216D02*
X211966D01*
X216966Y137896D02*
X218216D01*
X217591D02*
Y141646D01*
X216966Y141022*
X218919Y66042D02*
Y71342D01*
X231219*
Y66042*
X218919*
X222204Y104326D02*
X221891Y104013D01*
X221266Y103700*
X220329*
X219704Y104013*
X219391Y104326*
X219079Y104950*
Y106200*
X219391Y106826*
X219704Y107138*
X220329Y107450*
X221266*
X221891Y107138*
X222204Y106826*
X224079Y103700D02*
Y107450D01*
X226266*
X226891Y107138*
X227204Y106513*
X226891Y105888*
X226266Y105576*
X224079*
X229079Y107450D02*
Y103700D01*
X232204*
X234079D02*
Y107450D01*
X235954*
X236579Y107138*
X236891Y106826*
X237204Y106200*
Y104950*
X236891Y104326*
X236579Y104013*
X235954Y103700*
X234079*
X221266Y99576D02*
X221891Y99263D01*
X222204Y98638*
X221891Y98013*
X221266Y97700*
X219079*
Y101450*
X221266*
X221891Y101138*
X222204Y100513*
X221891Y99888*
X221266Y99576*
X219079*
X224079Y97700D02*
X225641Y101450D01*
X227204Y97700*
X224704Y99263D02*
X226579D01*
X229079Y97700D02*
Y101450D01*
X232204Y97700*
Y101450*
X234079Y97700D02*
Y101450D01*
Y99576D02*
X235016D01*
X237204Y101450*
X235016Y99576D02*
X237204Y97700D01*
X219079Y92638D02*
X219391Y92013D01*
X220016Y91700*
X221266*
X221891Y92013*
X222204Y92638*
X221891Y93263*
X221266Y93576*
X220016*
X219391Y93888*
X219079Y94513*
X219391Y95138*
X220016Y95450*
X221266*
X221891Y95138*
X222204Y94513*
X224079Y91700D02*
Y95450D01*
X227204*
X226579Y93576D02*
X224079D01*
Y91700D02*
X227204D01*
X229079Y95450D02*
Y91700D01*
X232204*
X232682Y66759D02*
Y70509D01*
X234870*
X235495Y70196*
X235807Y69571*
X235495Y68946*
X234870Y68634*
X232682*
X234870D02*
X235807Y66759D01*
X237995Y67071D02*
X238620Y66759D01*
X239245*
X239870Y67071*
X240182Y67696*
X239870Y68321*
X239245Y68634*
X238620*
X239245D02*
X239870Y68946D01*
X240182Y69571*
X239870Y70196*
X239245Y70509*
X238620*
X237995Y70196*
X245850Y149503D02*
X247100D01*
X246476D02*
Y153253D01*
X245850D02*
X247100D01*
X253038Y150128D02*
X252726Y149816D01*
X252100Y149503*
X251163*
X250538Y149816*
X250226Y150128*
X249913Y150753*
Y152003*
X250226Y152628*
X250538Y152941*
X251163Y153253*
X252100*
X252726Y152941*
X253038Y152628*
X257413Y149503D02*
X254913D01*
X257100Y151691*
X257413Y152316*
X257100Y152941*
X256476Y153253*
X255538*
X254913Y152941*
X248846Y126914D02*
X250096D01*
X249471D02*
Y130664D01*
X248846D02*
X250096D01*
X256033Y127539D02*
X255721Y127226D01*
X255096Y126914*
X254158*
X253533Y127226*
X253221Y127539*
X252908Y128164*
Y129414*
X253221Y130039*
X253533Y130352*
X254158Y130664*
X255096*
X255721Y130352*
X256033Y130039*
X258221Y127226D02*
X258846Y126914D01*
X259471*
X260096Y127226*
X260408Y127852*
X260096Y128476*
X259471Y128789*
X258846*
X259471D02*
X260096Y129102D01*
X260408Y129726*
X260096Y130352*
X259471Y130664*
X258846*
X258221Y130352*
X256774Y197678D02*
X256462Y197366D01*
X255837Y197053*
X254899*
X254274Y197366*
X253962Y197678*
X253649Y198303*
Y199553*
X253962Y200178*
X254274Y200491*
X254899Y200803*
X255837*
X256462Y200491*
X256774Y200178*
X258649Y197053D02*
X261149Y200803D01*
X258649*
X289627Y202385D02*
Y197085D01*
X277327*
Y202385*
X289627*
X294460Y197802D02*
Y201552D01*
X296647*
X297272Y201240*
X297585Y200615*
X297272Y199990*
X296647Y199677*
X294460*
X296647D02*
X297585Y197802D01*
X301022D02*
Y201552D01*
X299460Y199052*
X301960*
X330297Y74707D02*
X326547D01*
X328422Y76269*
X326547Y77832*
X330297*
Y84707D02*
X326547D01*
Y86582*
X326859Y87207*
X327172Y87519*
X327797Y87832*
X329047*
X329672Y87519*
X329985Y87207*
X330297Y86582*
Y84707*
Y94707D02*
X326547D01*
Y96582*
X326859Y97207*
X327172Y97519*
X327797Y97832*
X329047*
X329672Y97519*
X329985Y97207*
X330297Y96582*
Y94707*
X329672Y107832D02*
X329985Y107519D01*
X330297Y106894*
Y105957*
X329985Y105332*
X329672Y105019*
X329047Y104707*
X327797*
X327172Y105019*
X326859Y105332*
X326547Y105957*
Y106894*
X326859Y107519*
X327172Y107832*
X329985Y118144D02*
Y119082D01*
X330297*
X330922Y118769*
X331235Y118457*
X331547Y117832*
Y117207*
X331235Y116582*
X330922Y116269*
X330297Y115957*
X329047*
X328422Y116269*
X328109Y116582*
X327797Y117207*
Y117832*
X328109Y118457*
X328422Y118769*
X329047Y119082*
X327797Y125957D02*
X331547Y127519D01*
X327797Y129082*
X337647Y66385D02*
X337334Y66073D01*
X336709Y65760*
X335772*
X335147Y66073*
X334834Y66385*
X334522Y67010*
Y68260*
X334834Y68885*
X335147Y69198*
X335772Y69510*
X336709*
X337334Y69198*
X337647Y68885*
X339522Y65760D02*
Y69510D01*
X342647Y65760*
Y69510*
X345147Y65760D02*
X346397D01*
X345772D02*
Y69510D01*
X345147Y68885*
X333109Y78457D02*
X333735Y78769D01*
X334047Y79394*
Y80644*
X333735Y81269*
X333109Y81582*
X332485Y81269*
X332172Y80644*
Y79394*
X331859Y78769*
X331235Y78457*
X330609Y78769*
X330297Y79394*
Y80644*
X330609Y81269*
X331235Y81582*
X334047Y89394D02*
Y90644D01*
Y90019D02*
X330297D01*
Y89394D02*
Y90644D01*
X332797Y98457D02*
X331547D01*
X330922Y98769*
X330609Y99082*
X330297Y99707*
Y100332*
X330609Y100957*
X330922Y101269*
X331547Y101582*
X332797*
X333422Y101269*
X333735Y100957*
X334047Y100332*
Y99707*
X333735Y99082*
X333422Y98769*
X332797Y98457*
X334047Y108457D02*
X330297D01*
X332172D02*
Y109394D01*
X330297Y111582*
X332172Y109394D02*
X334047Y111582D01*
X336582Y143263D02*
X337832D01*
X337207D02*
Y147013D01*
X336582D02*
X337832D01*
X343770Y143888D02*
X343457Y143576D01*
X342832Y143263*
X341895*
X341270Y143576*
X340957Y143888*
X340645Y144513*
Y145763*
X340957Y146388*
X341270Y146701*
X341895Y147013*
X342832*
X343457Y146701*
X343770Y146388*
X347207Y143263D02*
Y147013D01*
X345645Y144513*
X348145*
D02*
D23*
X353735Y104707D02*
Y133007D01*
X353835Y104706D02*
Y133007D01*
X353935Y104707D02*
Y133006D01*
X354035Y104707D02*
X354034Y133007D01*
X354135Y104707D02*
Y133007D01*
X354235Y104707D02*
Y133007D01*
X354335Y104706D02*
Y133007D01*
X354435Y104707D02*
Y133006D01*
X354535Y104707D02*
X354534Y133006D01*
X354635Y104707D02*
Y133007D01*
X354735Y104707D02*
X354735Y133007D01*
X354835Y104706D02*
Y133007D01*
X354935Y104707D02*
Y133006D01*
X355035Y104707D02*
X355034Y133006D01*
X355135Y104707D02*
Y133007D01*
X355235Y104707D02*
X355235Y133007D01*
X355335Y104706D02*
Y133007D01*
X355435Y104707D02*
Y133006D01*
X355535Y104707D02*
Y133007D01*
X355635Y104707D02*
Y133007D01*
X355735Y104707D02*
Y133007D01*
X355835Y104706D02*
Y133007D01*
X355935Y104707D02*
X355935Y133007D01*
X356035Y104707D02*
Y133007D01*
X356135Y104707D02*
Y133007D01*
X356235Y104707D02*
X356234Y133007D01*
X356335Y104706D02*
Y133007D01*
X356435Y104707D02*
X356435Y133007D01*
X356535Y104707D02*
Y133007D01*
X356635Y104707D02*
Y133007D01*
X356735Y104707D02*
Y133006D01*
X356835Y104706D02*
Y133007D01*
X356935Y104707D02*
X356935Y133007D01*
X357035Y104707D02*
Y133007D01*
X357135Y104706D02*
Y133007D01*
X357235Y104707D02*
Y133006D01*
X357335Y104707D02*
X357335Y133007D01*
X357435Y104707D02*
X357435Y133007D01*
X357535Y104707D02*
Y133007D01*
X357635Y104706D02*
Y133007D01*
X357735Y104707D02*
Y133006D01*
X357835Y104707D02*
X357834Y133007D01*
X357935Y104707D02*
Y133007D01*
X358035Y104707D02*
Y133007D01*
X358135Y104706D02*
Y133007D01*
X358235Y104707D02*
Y133006D01*
X358335Y104707D02*
X358334Y133007D01*
X358435Y104707D02*
Y133007D01*
X358535Y104707D02*
X358535Y133007D01*
X358635Y104706D02*
Y133007D01*
X358735Y104707D02*
Y133006D01*
X358835Y104707D02*
X358834Y133006D01*
X358935Y104707D02*
Y133007D01*
X359035Y104707D02*
X359035Y133007D01*
X359135Y104706D02*
Y133007D01*
X359235Y104707D02*
Y133006D01*
X359335Y104707D02*
Y133007D01*
X359435Y104707D02*
Y133007D01*
X359535Y104707D02*
X359535Y133007D01*
X359635Y104706D02*
Y133007D01*
X359735Y104707D02*
X359735Y133007D01*
X359835Y104707D02*
Y133007D01*
X359935Y104707D02*
Y133007D01*
X360035Y104707D02*
X360034Y133007D01*
X360135Y104706D02*
Y133007D01*
X360235Y104707D02*
X360235Y133007D01*
X360335Y104707D02*
Y133007D01*
X360435Y104707D02*
Y133007D01*
X360535Y104707D02*
Y133006D01*
X360635Y104706D02*
Y133007D01*
X360735Y104707D02*
X360735Y133007D01*
X360835Y104707D02*
Y133007D01*
X360935Y104707D02*
Y133007D01*
X361035Y104707D02*
Y133006D01*
X361135Y104707D02*
X361135Y133007D01*
X361235Y104707D02*
X361235Y133007D01*
X361335Y104707D02*
Y133007D01*
X361435Y104706D02*
Y133007D01*
X361535Y104707D02*
Y133006D01*
X361635Y104707D02*
X361635Y133007D01*
X361735Y104707D02*
Y133007D01*
X361835Y104707D02*
Y133007D01*
X361935Y104706D02*
Y133007D01*
X362035Y104707D02*
Y133006D01*
X362135Y104707D02*
X362134Y133007D01*
X362235Y104707D02*
Y133007D01*
X362335Y104707D02*
X362335Y133007D01*
X362435Y104706D02*
Y133007D01*
X362535Y104707D02*
Y133006D01*
X362635Y104707D02*
X362634Y133006D01*
X362735Y104707D02*
Y133007D01*
X362835Y104707D02*
X362835Y133007D01*
X362935Y104706D02*
Y133007D01*
X363035Y104707D02*
Y133006D01*
X363135Y104707D02*
Y133007D01*
X363235Y104707D02*
Y133007D01*
X363335Y104707D02*
X363335Y133007D01*
X363435Y104706D02*
Y133007D01*
X363535Y104707D02*
X363535Y133007D01*
X363635Y104707D02*
Y133007D01*
X363735Y104707D02*
Y133007D01*
X363835Y104707D02*
X363834Y133007D01*
X363935Y104706D02*
Y133007D01*
X364035Y104707D02*
X364035Y133007D01*
X364135Y104707D02*
Y133007D01*
X364235Y104707D02*
Y107506D01*
Y108207D02*
Y133007D01*
X364335Y104707D02*
Y107406D01*
Y108307D02*
X364334Y108607D01*
X364335Y109807D02*
Y110107D01*
Y111307D02*
Y121306D01*
Y122507D02*
Y133006D01*
X364435Y104706D02*
Y107306D01*
Y108306D02*
Y108606D01*
Y109806D02*
Y110106D01*
Y111306D02*
Y121307D01*
Y122506D02*
Y133007D01*
X364534Y122506D02*
X364535Y133007D01*
X364535Y104707D02*
X364534Y107306D01*
X364535Y109807D02*
X364534Y110106D01*
X364535Y111307D02*
X364535Y121307D01*
Y108307D02*
X364534Y108606D01*
X364635Y104707D02*
Y107307D01*
Y108407D02*
Y108607D01*
Y109807D02*
Y110107D01*
Y111307D02*
Y121307D01*
Y122507D02*
Y133007D01*
X364735Y104707D02*
X364735Y107307D01*
X364735Y108407D02*
X364735Y108607D01*
X364735Y109806D02*
X364735Y110107D01*
X364735Y111306D02*
Y121307D01*
X364735Y122507D02*
X364735Y133007D01*
X364835Y104707D02*
Y107307D01*
Y108307D02*
X364834Y108607D01*
X364835Y109807D02*
Y110107D01*
Y111307D02*
Y121306D01*
Y122507D02*
Y133006D01*
X364935Y109806D02*
Y110407D01*
Y111306D02*
Y121607D01*
Y122506D02*
Y133007D01*
X364935Y104707D02*
X364935Y107407D01*
X364935Y108307D02*
X364935Y108907D01*
X365034Y122506D02*
X365035Y133007D01*
X365035Y104707D02*
Y107507D01*
Y109807D02*
X365035Y110407D01*
X365035Y111307D02*
X365035Y121607D01*
Y108207D02*
Y108907D01*
X365135Y104707D02*
Y108907D01*
Y109807D02*
Y110407D01*
Y111307D02*
Y121607D01*
Y122507D02*
Y133007D01*
X365235Y104706D02*
Y108907D01*
Y109806D02*
Y110407D01*
Y111306D02*
Y121607D01*
X365235Y122507D02*
X365235Y133007D01*
X365335Y104707D02*
Y108906D01*
Y109807D02*
Y110406D01*
Y111307D02*
Y121606D01*
Y122507D02*
Y133006D01*
X365435Y109806D02*
Y110407D01*
Y111306D02*
Y112707D01*
Y117007D02*
Y117406D01*
Y118007D02*
Y119007D01*
Y120307D02*
Y121607D01*
Y122506D02*
Y133007D01*
X365435Y104707D02*
X365435Y108907D01*
X365435Y113807D02*
Y115807D01*
X365534Y117206D02*
X365535Y117307D01*
X365534Y122506D02*
X365535Y133007D01*
X365535Y104707D02*
X365535Y107107D01*
X365535Y109807D02*
X365535Y110407D01*
X365535Y111307D02*
Y112406D01*
Y114107D02*
Y115607D01*
X365535Y108307D02*
Y108907D01*
Y118007D02*
X365535Y118806D01*
X365535Y120607D02*
Y121607D01*
X365635Y104707D02*
Y107107D01*
Y108307D02*
Y108906D01*
Y109807D02*
Y110407D01*
Y111307D02*
Y112307D01*
Y114207D02*
Y115407D01*
Y118007D02*
Y118707D01*
Y120707D02*
Y121607D01*
Y122507D02*
Y133007D01*
X365734Y108307D02*
X365735Y108907D01*
X365734Y114307D02*
Y115407D01*
X365735Y104706D02*
Y107107D01*
Y109806D02*
Y110407D01*
Y111306D02*
Y112207D01*
Y118007D02*
Y118507D01*
Y120807D02*
Y121607D01*
Y122506D02*
Y133007D01*
X365835Y104707D02*
Y107106D01*
Y108307D02*
Y108906D01*
Y109807D02*
Y110406D01*
Y111307D02*
Y112107D01*
Y114407D02*
Y115306D01*
Y118006D02*
Y118506D01*
Y120907D02*
Y121606D01*
Y122507D02*
Y133006D01*
X365934Y119606D02*
X365935Y119807D01*
Y109806D02*
Y110407D01*
Y111306D02*
X365934Y112006D01*
X365935Y113207D02*
Y113306D01*
Y118007D02*
Y118406D01*
Y121006D02*
X365934Y121607D01*
X365935Y122506D02*
X365934Y133007D01*
X365935Y104707D02*
X365935Y107107D01*
X365935Y108307D02*
X365935Y108907D01*
X365935Y114507D02*
X365935Y115207D01*
X365935Y116407D02*
X366035Y104707*
Y107107D01*
Y108307D02*
Y108907D01*
Y109807D02*
Y110407D01*
Y111307D02*
Y111906D01*
Y113007D02*
Y113507D01*
Y114607D02*
Y115206D01*
Y116206D02*
Y116607D01*
Y117807D02*
Y118407D01*
Y119407D02*
Y120006D01*
Y121006D02*
Y121607D01*
Y122507D02*
Y133007D01*
X366135Y104707D02*
Y107406D01*
Y108307D02*
Y108906D01*
Y109807D02*
Y110407D01*
Y111307D02*
Y111907D01*
Y112907D02*
Y113607D01*
Y114607D02*
Y115207D01*
Y116107D02*
Y116707D01*
Y117606D02*
Y118407D01*
Y119306D02*
X366135Y120107D01*
X366135Y121007D02*
Y121607D01*
Y122507D02*
X366135Y133007D01*
X366234Y108307D02*
X366235Y108907D01*
Y104706D02*
Y107407D01*
Y109806D02*
Y110407D01*
Y111306D02*
Y111906D01*
Y112806D02*
Y113707D01*
Y114606D02*
Y115207D01*
Y116106D02*
Y116706D01*
Y117606D02*
Y118406D01*
Y119307D02*
Y120107D01*
Y121006D02*
Y121607D01*
Y122506D02*
Y133007D01*
X366335Y104707D02*
Y107406D01*
Y108307D02*
Y108906D01*
Y109807D02*
Y110406D01*
Y111307D02*
Y111807D01*
Y112807D02*
Y113706D01*
Y114706D02*
X366335Y115207D01*
X366335Y116107D02*
X366335Y116707D01*
X366335Y117606D02*
Y118407D01*
Y119207D02*
Y120207D01*
Y121106D02*
Y121606D01*
Y122507D02*
Y133006D01*
X366434Y121106D02*
X366434Y121607D01*
X366435Y109806D02*
Y110407D01*
Y114707D02*
Y115207D01*
Y117606D02*
Y118406D01*
X366435Y104707D02*
X366435Y107407D01*
X366435Y108307D02*
X366435Y108907D01*
X366435Y111307D02*
Y111807D01*
Y116107D02*
X366435Y116706D01*
X366435Y119207D02*
X366434Y119606D01*
X366435Y122507D02*
X366434Y133006D01*
X366535Y104707D02*
Y107407D01*
Y108307D02*
Y108907D01*
Y109806D02*
Y110407D01*
Y111307D02*
Y111807D01*
Y114707D02*
Y115206D01*
Y116206D02*
Y116607D01*
Y117606D02*
Y119207D01*
Y121107D02*
Y121607D01*
Y122507D02*
Y133007D01*
X366635Y104707D02*
Y107406D01*
Y108307D02*
Y108906D01*
Y109807D02*
Y110407D01*
Y111307D02*
Y111807D01*
Y114707D02*
Y115207D01*
Y117506D02*
Y118907D01*
Y122507D02*
X366635Y133007D01*
Y121107D02*
Y121607D01*
X366735Y104706D02*
Y107407D01*
Y108306D02*
Y108907D01*
Y109806D02*
Y110407D01*
Y111306D02*
Y111806D01*
Y114707D02*
Y115307D01*
Y117507D02*
Y118807D01*
Y121107D02*
Y121607D01*
Y122506D02*
Y133007D01*
X366835Y104707D02*
Y107406D01*
Y108307D02*
Y108906D01*
Y109807D02*
Y110406D01*
Y111307D02*
Y111807D01*
Y117407D02*
Y118606D01*
Y121106D02*
Y121606D01*
Y122507D02*
Y133006D01*
X366835Y114707D02*
X366835Y115407D01*
X366934Y117306D02*
X366935Y118507D01*
X366934Y120106D02*
X366935Y120207D01*
X366934Y121106D02*
X366935Y121607D01*
X366935Y104707D02*
Y107407D01*
Y109806D02*
Y110407D01*
Y114707D02*
Y115507D01*
X366935Y108307D02*
X366935Y108907D01*
X366935Y111307D02*
Y111807D01*
Y122507D02*
X366934Y133006D01*
X367035Y104707D02*
Y107407D01*
Y108307D02*
Y108907D01*
Y109806D02*
Y110407D01*
Y111307D02*
Y111807D01*
Y112707D02*
Y115507D01*
Y117206D02*
Y118406D01*
Y119707D02*
Y120207D01*
Y121107D02*
Y121607D01*
Y122507D02*
Y133007D01*
X367134Y119507D02*
X367135Y120207D01*
Y104707D02*
Y107406D01*
Y108307D02*
Y108906D01*
Y109807D02*
Y110406D01*
Y111307D02*
Y111807D01*
Y112706D02*
Y115407D01*
Y116907D02*
Y118407D01*
Y122507D02*
X367135Y133007D01*
Y121107D02*
Y121607D01*
X367235Y104706D02*
Y107407D01*
Y108306D02*
Y108907D01*
Y109806D02*
Y110407D01*
Y111306D02*
Y111806D01*
Y112707D02*
Y113906D01*
Y114707D02*
Y115307D01*
Y116206D02*
Y118307D01*
Y119307D02*
Y120206D01*
Y121107D02*
Y121607D01*
Y122506D02*
Y133007D01*
X367335Y104707D02*
Y107406D01*
Y108307D02*
Y108906D01*
Y109807D02*
X367335Y110407D01*
X367335Y111307D02*
Y111807D01*
Y112807D02*
X367335Y113907D01*
X367335Y119306D02*
Y120207D01*
Y121106D02*
X367335Y121607D01*
Y114707D02*
X367335Y115306D01*
X367335Y116707D02*
Y118307D01*
Y122507D02*
X367335Y133006D01*
X367435Y109806D02*
Y110407D01*
Y114707D02*
X367434Y115306D01*
X367435Y117406D02*
X367435Y118307D01*
Y104707D02*
X367435Y107407D01*
X367435Y108307D02*
X367435Y108907D01*
X367435Y111307D02*
Y111807D01*
Y112807D02*
Y113907D01*
Y119207D02*
X367435Y120006D01*
X367435Y121107D02*
Y121607D01*
Y122507D02*
Y133007D01*
X367535Y104707D02*
Y107407D01*
Y108307D02*
Y108907D01*
Y109806D02*
Y110407D01*
Y111307D02*
Y111906D01*
Y114606D02*
Y115307D01*
Y117607D02*
Y118307D01*
Y119307D02*
Y119907D01*
Y121107D02*
Y121607D01*
X367535Y122507D02*
X367535Y133007D01*
X367535Y112906D02*
X367535Y113807D01*
X367635Y104707D02*
Y107406D01*
Y108307D02*
Y108906D01*
Y109807D02*
Y110406D01*
Y111307D02*
X367634Y111907D01*
X367635Y113006D02*
Y113706D01*
Y114607D02*
Y115306D01*
Y117807D02*
Y118307D01*
Y119306D02*
Y119806D01*
Y121107D02*
Y121607D01*
Y122507D02*
Y133007D01*
X367735Y104706D02*
Y107407D01*
Y108306D02*
Y108907D01*
Y109806D02*
Y110407D01*
Y111306D02*
Y112007D01*
Y114606D02*
Y115406D01*
Y117906D02*
Y118307D01*
Y121107D02*
Y121607D01*
Y122506D02*
Y133007D01*
X367834Y108307D02*
X367835Y108906D01*
X367834Y122506D02*
X367835Y133007D01*
X367835Y104707D02*
Y107406D01*
Y109807D02*
X367835Y110407D01*
X367835Y111307D02*
Y112006D01*
Y117907D02*
Y118407D01*
X367835Y114507D02*
X367834Y115407D01*
X367835Y121107D02*
Y121607D01*
X367935Y104707D02*
Y107406D01*
Y108307D02*
Y108907D01*
Y109807D02*
Y110407D01*
Y111307D02*
Y112107D01*
Y114407D02*
Y115207D01*
Y117907D02*
Y118407D01*
Y121107D02*
Y121607D01*
Y122507D02*
Y133007D01*
X368035Y104707D02*
Y107407D01*
Y108307D02*
Y108907D01*
Y109806D02*
Y110407D01*
Y111306D02*
Y112207D01*
Y114307D02*
Y115206D01*
Y116107D02*
Y116607D01*
Y118007D02*
Y118507D01*
Y121107D02*
Y121607D01*
X368035Y122507D02*
X368035Y133007D01*
X368135Y104707D02*
Y107406D01*
Y108307D02*
Y108906D01*
Y109807D02*
Y110406D01*
Y111307D02*
X368134Y112407D01*
X368135Y114107D02*
Y115107D01*
Y116006D02*
Y117006D01*
Y118006D02*
Y118606D01*
Y120106D02*
Y120306D01*
Y121106D02*
X368134Y121607D01*
X368135Y122507D02*
Y133006D01*
X368235Y104706D02*
Y112707D01*
Y113906D02*
Y115106D01*
Y116007D02*
X368235Y117107D01*
X368235Y118007D02*
Y118807D01*
Y119906D02*
Y133007D01*
X368335Y104707D02*
Y115107D01*
Y116006D02*
Y117107D01*
X368335Y118007D02*
Y133007D01*
X368435Y104707D02*
Y115107D01*
Y116206D02*
Y116907D01*
Y118007D02*
Y133007D01*
X368535Y104707D02*
Y115106D01*
Y117906D02*
Y133007D01*
X368635Y104707D02*
Y115206D01*
Y117907D02*
Y133006D01*
X368735Y104706D02*
Y115207D01*
Y117807D02*
Y133007D01*
X368834Y117706D02*
X368835Y133007D01*
X368835Y104707D02*
Y115306D01*
X368935Y104707D02*
Y115506D01*
Y117507D02*
Y133007D01*
X369034Y117107D02*
X369035Y133007D01*
Y104706D02*
X369035Y115907D01*
X369135Y104707D02*
Y133006D01*
X369235Y104707D02*
X369235Y133007D01*
X369335Y104707D02*
X369335Y133007D01*
X369435Y104707D02*
Y133007D01*
X369535Y104706D02*
Y133007D01*
X369635Y104707D02*
Y121806D01*
Y122406D02*
Y133006D01*
X369734Y109206D02*
X369735Y121706D01*
Y122506D02*
X369734Y133007D01*
X369735Y104707D02*
X369734Y108206D01*
X369835Y104707D02*
Y107907D01*
Y109207D02*
Y121607D01*
Y122606D02*
Y133007D01*
X369935Y104707D02*
Y107807D01*
Y122607D02*
X369935Y133007D01*
Y109207D02*
X369935Y121607D01*
X370035Y104706D02*
X370034Y107807D01*
X370035Y109207D02*
X370034Y119707D01*
X370035Y120607D02*
Y121607D01*
Y122607D02*
Y133007D01*
X370135Y104707D02*
Y107706D01*
Y109206D02*
Y119707D01*
Y120606D02*
Y121606D01*
Y122606D02*
Y133006D01*
X370234Y109206D02*
X370235Y119707D01*
X370234Y120606D02*
X370234Y121607D01*
X370235Y104707D02*
X370234Y107706D01*
X370235Y122607D02*
X370234Y133006D01*
X370335Y104707D02*
Y107707D01*
Y108606D02*
Y119707D01*
Y120607D02*
Y121607D01*
Y122606D02*
Y133007D01*
X370435Y104707D02*
X370435Y107707D01*
X370435Y108607D02*
Y119707D01*
Y122507D02*
X370435Y133007D01*
Y120607D02*
X370435Y121707D01*
X370535Y104706D02*
Y107707D01*
Y108606D02*
Y119706D01*
Y120607D02*
Y121906D01*
Y122307D02*
Y133007D01*
X370635Y104707D02*
Y107706D01*
Y120606D02*
Y133006D01*
X370635Y108607D02*
X370635Y119707D01*
X370734Y120606D02*
Y133006D01*
X370735Y104707D02*
X370734Y107706D01*
X370735Y108606D02*
X370735Y119707D01*
X370835Y104707D02*
Y107707D01*
Y108606D02*
Y114007D01*
Y115107D02*
Y117107D01*
Y120607D02*
Y124007D01*
Y125107D02*
Y127707D01*
Y128707D02*
Y133007D01*
X370835Y118207D02*
X370835Y119707D01*
X370935Y104707D02*
X370935Y107207D01*
X370935Y112307D02*
Y112607D01*
Y113706D02*
X370935Y113807D01*
X370935Y118407D02*
Y119207D01*
Y121306D02*
X370935Y121407D01*
X370935Y122607D02*
Y123707D01*
Y127307D02*
Y127406D01*
Y128906D02*
X370935Y133007D01*
Y109207D02*
X370935Y109307D01*
X370935Y125407D02*
X370935Y126207D01*
Y110507D02*
X370934Y111407D01*
X370935Y115307D02*
X370935Y116807D01*
X371035Y104706D02*
Y107207D01*
Y109207D02*
Y109306D01*
Y112306D02*
Y112606D01*
Y115406D02*
Y116606D01*
Y121307D02*
Y121406D01*
Y122607D02*
Y123607D01*
Y125506D02*
X371035Y126206D01*
X371035Y127306D02*
Y129006*
Y133007D01*
X371035Y110506D02*
X371035Y111407D01*
X371035Y118606D02*
X371035Y119206D01*
X371135Y104707D02*
Y107206D01*
Y109206D02*
Y109307D01*
Y110506D02*
X371135Y111407D01*
X371135Y112307D02*
Y112607D01*
Y115506D02*
Y116506D01*
Y121306D02*
Y121406D01*
Y122606D02*
Y123507D01*
Y125606D02*
Y126206D01*
X371135Y118707D02*
X371135Y119207D01*
X371135Y129107D02*
X371135Y133006D01*
X371235Y110506D02*
Y111407D01*
Y115507D02*
X371235Y116407D01*
X371235Y118806D02*
X371235Y119207D01*
X371235Y121307D02*
Y121406D01*
Y122607D02*
X371234Y123406D01*
X371235Y125706D02*
Y126206D01*
X371235Y104707D02*
X371234Y107206D01*
X371235Y109207D02*
X371235Y109306D01*
X371235Y112307D02*
Y112607D01*
Y129207D02*
Y133007D01*
X371335Y104707D02*
Y107207D01*
Y109207D02*
Y109306D01*
Y110507D02*
Y111406D01*
Y112307D02*
Y112607D01*
Y115607D02*
Y116307D01*
Y118906D02*
Y119207D01*
Y121307D02*
Y121407D01*
Y122607D02*
Y123306D01*
Y129207D02*
Y133007D01*
X371335Y125807D02*
X371335Y126207D01*
X371434Y124307D02*
Y124807D01*
X371435Y104707D02*
Y107206D01*
Y109207D02*
Y109307D01*
Y110506D02*
X371434Y111407D01*
X371435Y112307D02*
Y112607D01*
Y114107D02*
Y114607D01*
Y115607D02*
Y116306D01*
Y117407D02*
Y117907D01*
Y118907D02*
Y119207D01*
Y121306D02*
Y121406D01*
Y122606D02*
Y123207D01*
Y125907D02*
Y126206D01*
Y127706D02*
Y128206D01*
Y129207D02*
Y133007D01*
X371535Y104706D02*
Y107707D01*
Y108606D02*
Y109606D01*
Y112306D02*
Y112906D01*
Y114007D02*
Y114707D01*
Y115606D02*
Y116206D01*
Y117206D02*
Y118007D01*
Y118906D02*
Y119706D01*
Y120607D02*
Y121706D01*
Y122607D02*
Y123206D01*
Y124206D02*
Y124907D01*
Y125907D02*
Y126506D01*
Y127606D02*
Y128306D01*
Y129207D02*
Y133007D01*
X371535Y110506D02*
X371535Y111407D01*
X371634Y108606D02*
Y109606D01*
Y113906D02*
X371635Y114707D01*
X371634Y117206D02*
X371635Y118106D01*
Y104707D02*
Y107706D01*
Y110506D02*
X371634Y111407D01*
X371635Y112307D02*
X371634Y112906D01*
X371635Y115607D02*
X371634Y116206D01*
X371635Y118907D02*
X371634Y119707D01*
X371635Y120606D02*
Y121707D01*
Y122606D02*
Y123207D01*
Y124106D02*
Y125007D01*
Y126007D02*
Y126507D01*
Y127507D02*
X371634Y128307D01*
X371635Y129207D02*
Y133007D01*
X371735Y104707D02*
X371734Y107706D01*
X371735Y108606D02*
Y109607D01*
Y110506D02*
Y111407D01*
Y112307D02*
Y112906D01*
Y113806D02*
Y114707D01*
Y115607D02*
Y116206D01*
Y117106D02*
Y118106D01*
Y118907D02*
Y119707D01*
Y120607D02*
Y121707D01*
Y122607D02*
Y123106D01*
Y124107D02*
Y125006D01*
Y126007D02*
Y126507D01*
Y127407D02*
Y128307D01*
Y129207D02*
Y133007D01*
X371835Y104707D02*
Y107707D01*
Y110507D02*
Y111406D01*
Y112307D02*
X371835Y112907D01*
X371835Y113807D02*
Y114707D01*
Y115607D02*
Y116107D01*
Y117107D02*
Y118107D01*
Y118906D02*
Y119707D01*
Y120607D02*
Y121706D01*
Y122607D02*
Y123107D01*
Y124007D02*
Y125107D01*
Y126006D02*
Y126506D01*
Y127407D02*
Y128407D01*
Y129207D02*
Y133007D01*
X371835Y108606D02*
Y109607D01*
X371934Y108607D02*
X371935Y109607D01*
X371934Y129207D02*
X371935Y133006D01*
Y104707D02*
Y107706D01*
Y110506D02*
Y111406D01*
Y112307D02*
X371934Y112907D01*
X371935Y113806D02*
Y114706D01*
Y115607D02*
Y116107D01*
Y117107D02*
Y118106D01*
Y118907D02*
Y119707D01*
Y120606D02*
Y121707D01*
Y122606D02*
Y123106D01*
Y124007D02*
Y125106D01*
Y126007D02*
Y126507D01*
Y127406D02*
Y128406D01*
X372035Y104706D02*
X372035Y107707D01*
X372035Y108606D02*
Y109606D01*
Y112306D02*
Y112906D01*
Y115606D02*
Y116106D01*
Y117007D02*
Y119706D01*
Y120607D02*
Y121706D01*
Y122607D02*
Y123107D01*
Y124006D02*
Y125107D01*
Y126006D02*
Y126506D01*
Y127407D02*
Y128407D01*
Y129207D02*
Y133007D01*
X372035Y110506D02*
X372035Y111407D01*
X372035Y113806D02*
X372035Y114707D01*
X372134Y108606D02*
Y109606D01*
X372135Y104707D02*
Y107706D01*
Y110506D02*
Y111406D01*
Y112307D02*
X372134Y112906D01*
X372135Y113806D02*
X372135Y114707D01*
X372135Y115607D02*
Y116107D01*
Y122606D02*
Y123106D01*
Y126007D02*
Y126507D01*
Y127406D02*
Y128406D01*
X372135Y117007D02*
X372134Y119707D01*
X372135Y120607D02*
X372135Y121707D01*
X372135Y124007D02*
Y125107D01*
Y129207D02*
Y133007D01*
X372235Y104707D02*
Y107706D01*
Y108606D02*
Y109607D01*
Y110506D02*
Y111407D01*
Y112307D02*
Y112907D01*
Y113806D02*
Y114707D01*
Y115607D02*
Y116107D01*
Y117007D02*
Y119707D01*
Y120607D02*
Y121707D01*
Y122607D02*
Y123106D01*
Y124007D02*
Y125107D01*
Y126007D02*
Y126507D01*
Y127406D02*
Y128407D01*
Y129207D02*
Y133007D01*
X372335Y104707D02*
Y107707D01*
Y110507D02*
Y111406D01*
Y112307D02*
X372335Y112907D01*
X372335Y113807D02*
Y114707D01*
Y115606D02*
Y116107D01*
Y117007D02*
X372335Y119707D01*
X372335Y120607D02*
Y121706D01*
Y122607D02*
Y123107D01*
Y124007D02*
Y125107D01*
Y126006D02*
Y126506D01*
Y127407D02*
Y128407D01*
Y129207D02*
Y133007D01*
X372335Y108607D02*
Y109607D01*
X372434Y108607D02*
X372435Y109607D01*
Y104707D02*
Y107706D01*
Y110506D02*
Y111406D01*
Y112307D02*
Y112907D01*
Y113806D02*
Y114706D01*
Y115607D02*
Y116107D01*
Y117006D02*
Y119707D01*
Y120606D02*
Y121707D01*
Y122606D02*
Y123106D01*
Y124007D02*
Y125106D01*
Y126007D02*
Y126507D01*
Y127406D02*
Y128406D01*
Y129206D02*
Y133006D01*
X372535Y104706D02*
X372535Y107707D01*
X372535Y108606D02*
Y109606D01*
Y112306D02*
Y112906D01*
Y115606D02*
Y116106D01*
Y118906D02*
Y119706D01*
Y120607D02*
Y121706D01*
Y122607D02*
Y123107D01*
Y126006D02*
Y126506D01*
Y127407D02*
Y128407D01*
Y129207D02*
Y133007D01*
X372535Y110507D02*
X372535Y111407D01*
X372535Y113806D02*
X372535Y114707D01*
X372535Y117107D02*
X372535Y118206D01*
X372535Y124007D02*
X372535Y125107D01*
X372634Y108606D02*
Y109606D01*
X372635Y104707D02*
Y107706D01*
Y110506D02*
Y111406D01*
Y112307D02*
X372634Y112906D01*
X372635Y113806D02*
Y114707D01*
Y115607D02*
Y116107D01*
Y117107D02*
Y118106D01*
Y118907D02*
X372635Y119707D01*
X372635Y122606D02*
Y123106D01*
Y124007D02*
X372635Y125107D01*
X372635Y126007D02*
Y126507D01*
Y127406D02*
X372635Y128407D01*
Y120607D02*
X372635Y121707D01*
X372635Y129207D02*
Y133007D01*
X372735Y104707D02*
X372735Y107707D01*
X372735Y108607D02*
Y109607D01*
Y110506D02*
Y111407D01*
Y112307D02*
Y112907D01*
Y113806D02*
Y114707D01*
Y115607D02*
Y116207D01*
Y117106D02*
Y118106D01*
Y118907D02*
Y119707D01*
Y120607D02*
Y121707D01*
Y122607D02*
Y123106D01*
Y124106D02*
Y125007D01*
Y126007D02*
Y126507D01*
Y127406D02*
Y128407D01*
Y129207D02*
Y133007D01*
X372834Y110507D02*
X372835Y111406D01*
X372834Y113807D02*
X372835Y114707D01*
Y104706D02*
X372834Y107707D01*
X372835Y112306D02*
X372835Y112907D01*
X372835Y115606D02*
X372835Y116207D01*
X372835Y118906D02*
X372835Y119707D01*
X372835Y120607D02*
Y121706D01*
Y122607D02*
Y123107D01*
Y124107D02*
Y125006D01*
Y126006D02*
Y126506D01*
Y127407D02*
Y128407D01*
Y129207D02*
Y133007D01*
X372835Y108607D02*
Y109607D01*
Y117207D02*
X372834Y118107D01*
X372935Y104707D02*
Y107706D01*
Y110506D02*
Y111307D01*
Y112307D02*
Y112907D01*
Y113806D02*
Y114706D01*
Y115607D02*
X372935Y116206D01*
X372935Y117207D02*
Y118006D01*
Y118907D02*
Y119707D01*
Y120606D02*
Y121707D01*
Y122606D02*
Y123207D01*
Y124207D02*
Y124906D01*
Y125906D02*
Y126507D01*
Y127406D02*
Y128406D01*
Y129206D02*
Y133006D01*
X372935Y108606D02*
X372935Y109607D01*
X373035Y108606D02*
Y109606D01*
Y110606D02*
Y111106D01*
Y115606D02*
X373035Y116307D01*
X373035Y117307D02*
Y117906D01*
Y118807D02*
X373035Y119707D01*
X373035Y120807D02*
Y121706D01*
Y122607D02*
Y123206D01*
Y124306D02*
Y124806D01*
Y125907D02*
Y126506D01*
Y127407D02*
Y128407D01*
Y129207D02*
Y133007D01*
X373035Y104707D02*
Y107707D01*
Y112307D02*
X373035Y112906D01*
X373035Y113807D02*
X373035Y114707D01*
X373134Y125806D02*
X373135Y126507D01*
Y104707D02*
Y107706D01*
Y108606D02*
X373134Y109606D01*
X373135Y112307D02*
X373134Y112906D01*
X373135Y113806D02*
X373135Y114707D01*
X373135Y115607D02*
X373135Y116307D01*
X373135Y118806D02*
X373135Y119707D01*
X373135Y122606D02*
Y123306D01*
Y127406D02*
X373135Y128407D01*
Y110707D02*
X373135Y110907D01*
X373135Y117507D02*
X373134Y117706D01*
X373135Y121307D02*
X373135Y121707D01*
X373135Y124407D02*
Y124607D01*
Y129207D02*
Y133007D01*
X373235Y104707D02*
X373235Y107707D01*
X373235Y108607D02*
Y109707D01*
Y112307D02*
Y112907D01*
Y113806D02*
Y114707D01*
Y115607D02*
Y116407D01*
Y118707D02*
Y119707D01*
Y121307D02*
Y121707D01*
Y122607D02*
Y123307D01*
Y125807D02*
Y126507D01*
Y127406D02*
Y128406D01*
Y129207D02*
Y133007D01*
X373334Y113807D02*
X373335Y114707D01*
X373334Y118607D02*
X373335Y119807D01*
X373334Y125707D02*
X373335Y126506D01*
Y104706D02*
X373334Y107707D01*
X373335Y108606D02*
Y109707D01*
Y112306D02*
Y112906D01*
Y115606D02*
Y116507D01*
Y121307D02*
Y121706D01*
Y122607D02*
X373334Y123407D01*
X373335Y127407D02*
Y128407D01*
Y129207D02*
Y133007D01*
X373435Y104707D02*
Y107706D01*
Y112307D02*
X373435Y112906D01*
X373435Y113806D02*
Y114706D01*
Y115607D02*
Y116607D01*
Y118506D02*
Y119806D01*
Y121306D02*
Y121707D01*
Y122606D02*
Y123507D01*
Y125606D02*
Y126507D01*
Y127406D02*
Y128406D01*
Y129206D02*
Y133006D01*
X373435Y108606D02*
X373435Y109807D01*
X373534Y111506D02*
Y113806*
X373535Y114707D01*
X373534Y125407D02*
X373535Y126506D01*
X373534Y129207D02*
Y133007D01*
X373535Y108606D02*
Y109907D01*
Y118406D02*
Y120006D01*
Y121307D02*
Y121706D01*
Y127407D02*
Y128407D01*
X373535Y104707D02*
X373534Y107706D01*
X373535Y112307D02*
X373535Y112906D01*
X373535Y115607D02*
X373535Y116706D01*
X373535Y122607D02*
Y123707D01*
X373634Y118206D02*
X373635Y123907D01*
Y104707D02*
X373634Y110106D01*
X373635Y111307D02*
Y116906D01*
Y125207D02*
Y133007D01*
X373735Y104707D02*
Y133007D01*
X373835Y104706D02*
Y133007D01*
X373935Y104707D02*
Y133006D01*
X374035Y104707D02*
X374034Y133006D01*
X374135Y104707D02*
Y133007D01*
X374235Y104707D02*
X374235Y133007D01*
X374335Y104706D02*
Y133007D01*
X374435Y104707D02*
Y133006D01*
X374535Y104707D02*
X374534Y133006D01*
X374635Y104707D02*
Y133007D01*
X374735Y104707D02*
X374735Y133007D01*
X374835Y104706D02*
Y133007D01*
X374935Y104707D02*
Y133006D01*
X375035Y104707D02*
Y133007D01*
X375135Y104707D02*
Y133007D01*
X375235Y104707D02*
X375234Y113407D01*
X375235Y114607D02*
Y114907D01*
Y116107D02*
Y133007D01*
X375335Y104706D02*
Y113406D01*
Y114606D02*
Y114906D01*
Y116106D02*
Y133007D01*
X375435Y104707D02*
X375434Y113406D01*
X375435Y114607D02*
X375434Y114906D01*
X375435Y116107D02*
X375435Y133007D01*
X375535Y104707D02*
Y113407D01*
Y114607D02*
Y114907D01*
Y116107D02*
Y133007D01*
X375635Y104707D02*
X375635Y113407D01*
X375635Y114606D02*
X375635Y114907D01*
X375635Y116107D02*
Y133007D01*
X375735Y104707D02*
Y113706D01*
Y114607D02*
Y115206D01*
Y116107D02*
X375734Y133007D01*
X375835Y104706D02*
Y113707D01*
Y114606D02*
Y115207D01*
Y116106D02*
Y133007D01*
X375935Y104707D02*
X375935Y113707D01*
X375935Y114607D02*
Y115206D01*
Y116107D02*
X375935Y133007D01*
X376035Y104707D02*
Y113707D01*
Y114607D02*
Y115207D01*
Y116107D02*
Y133007D01*
X376135Y104707D02*
Y113707D01*
Y114606D02*
Y115206D01*
Y116107D02*
Y133007D01*
X376235Y104707D02*
Y108307D01*
Y109307D02*
Y111307D01*
Y112307D02*
Y113706D01*
Y114607D02*
Y115206D01*
Y116107D02*
Y133006D01*
X376335Y104706D02*
Y108006D01*
Y109606D02*
X376335Y111007D01*
X376335Y114606D02*
Y115207D01*
Y116106D02*
Y133007D01*
X376335Y112607D02*
X376335Y113707D01*
X376435Y104707D02*
Y107906D01*
Y112807D02*
X376435Y113707D01*
X376435Y114607D02*
Y115206D01*
Y116107D02*
X376435Y133007D01*
Y109707D02*
X376435Y110807D01*
X376535Y104707D02*
Y107706D01*
Y109907D02*
Y110707D01*
Y112907D02*
Y113707D01*
Y114607D02*
Y115207D01*
Y116107D02*
Y133007D01*
X376634Y110007D02*
X376635Y110607D01*
X376635Y104706D02*
Y107606D01*
Y113007D02*
Y113707D01*
Y114606D02*
Y115206D01*
Y116106D02*
Y133007D01*
X376735Y104707D02*
Y107606D01*
Y110006D02*
Y110506D01*
Y113107D02*
Y113706D01*
Y114607D02*
Y115206D01*
Y116107D02*
Y133006D01*
X376835Y108606D02*
X376835Y109007D01*
X376835Y110106D02*
X376835Y110507D01*
X376835Y111606D02*
X376835Y112007D01*
X376835Y113106D02*
Y113707D01*
Y114606D02*
Y115207D01*
Y116106D02*
Y133007D01*
X376835Y104707D02*
X376835Y107506D01*
X376934Y110106D02*
X376935Y110506D01*
Y104707D02*
Y107406D01*
Y111506D02*
X376935Y112207D01*
X376935Y113107D02*
X376935Y113707D01*
X376935Y114607D02*
Y115206D01*
Y116107D02*
X376935Y133007D01*
Y108407D02*
Y109207D01*
X377035Y104707D02*
Y107406D01*
Y108406D02*
Y109207D01*
Y110107D02*
Y110506D01*
Y111407D02*
Y112206D01*
Y113207D02*
Y113707D01*
Y114607D02*
Y115207D01*
Y116107D02*
Y133007D01*
X377135Y104706D02*
Y107407D01*
Y113207D02*
Y113707D01*
Y114606D02*
X377135Y115207D01*
X377135Y116106D02*
Y133007D01*
X377135Y108307D02*
X377135Y109306D01*
X377135Y110107D02*
X377134Y110507D01*
X377135Y111407D02*
X377135Y112306D01*
X377235Y104707D02*
Y107307D01*
Y108307D02*
Y109307D01*
Y110107D02*
Y110506D01*
Y111307D02*
Y112006D01*
Y113206D02*
Y113706D01*
Y114607D02*
Y115206D01*
Y116107D02*
Y133006D01*
X377335Y110106D02*
X377334Y111506D01*
X377335Y113207D02*
Y113707D01*
Y114606D02*
Y115207D01*
X377335Y104707D02*
X377335Y107306D01*
X377335Y108307D02*
X377335Y109306D01*
X377335Y116107D02*
X377334Y133007D01*
X377435Y104707D02*
Y107307D01*
Y108207D02*
Y111206D01*
Y113207D02*
Y113707D01*
Y114607D02*
Y115206D01*
Y116107D02*
Y133007D01*
X377535Y104707D02*
Y107307D01*
Y113206D02*
Y113707D01*
Y114607D02*
Y115207D01*
Y116107D02*
Y133007D01*
X377535Y108207D02*
X377535Y111007D01*
X377635Y104706D02*
Y107306D01*
Y108207D02*
Y110806D01*
Y113207D02*
Y113707D01*
Y114606D02*
Y115207D01*
Y116106D02*
Y133007D01*
X377735Y104707D02*
Y107307D01*
Y108206D02*
Y110706D01*
Y113206D02*
Y113706D01*
Y114607D02*
Y115206D01*
Y116107D02*
Y133006D01*
X377834Y108206D02*
X377835Y110606D01*
X377834Y112006D02*
X377835Y112307D01*
X377835Y113207D02*
Y113707D01*
Y114606D02*
Y115207D01*
X377835Y104707D02*
Y107307D01*
Y116107D02*
X377834Y133007D01*
X377935Y104707D02*
Y107307D01*
Y108207D02*
Y110506D01*
Y111707D02*
Y112307D01*
Y113207D02*
Y113707D01*
Y114607D02*
Y115206D01*
Y116107D02*
Y133007D01*
X378035Y104707D02*
Y107307D01*
Y108307D02*
Y109307D01*
Y110107D02*
X378035Y110507D01*
X378035Y113206D02*
Y113706D01*
Y114607D02*
Y115207D01*
Y116107D02*
X378035Y133007D01*
X378035Y111507D02*
X378035Y112307D01*
X378134Y108307D02*
X378135Y109306D01*
Y104706D02*
Y107306D01*
Y110106D02*
X378134Y110507D01*
X378135Y111407D02*
Y112306D01*
Y113207D02*
Y113707D01*
Y114606D02*
Y115207D01*
Y116106D02*
Y133007D01*
X378235Y104707D02*
Y107406D01*
Y108307D02*
Y109307D01*
Y113206D02*
Y113706D01*
Y114607D02*
X378235Y115207D01*
X378235Y116107D02*
Y133006D01*
X378235Y110107D02*
X378235Y110406D01*
X378235Y111407D02*
X378235Y112206D01*
X378335Y108407D02*
X378334Y109206D01*
X378335Y110106D02*
Y110407D01*
Y111407D02*
X378335Y112107D01*
X378335Y113207D02*
Y113707D01*
Y114606D02*
Y115207D01*
X378335Y104707D02*
X378335Y107407D01*
X378335Y116107D02*
X378334Y133006D01*
X378435Y104707D02*
Y107407D01*
Y108507D02*
Y109106D01*
Y110006D02*
Y110407D01*
Y111406D02*
Y112007D01*
Y113207D02*
Y113707D01*
Y114607D02*
Y115206D01*
Y116107D02*
Y133007D01*
X378535Y104707D02*
Y107507D01*
Y113206D02*
Y113706D01*
Y114607D02*
X378534Y115207D01*
X378535Y116107D02*
X378535Y133007D01*
X378535Y108707D02*
X378535Y109007D01*
X378535Y110007D02*
Y110507D01*
Y111507D02*
X378535Y111706D01*
X378635Y104706D02*
Y107607D01*
Y109907D02*
X378635Y110506D01*
X378635Y113207D02*
Y113707D01*
Y114606D02*
Y115207D01*
Y116106D02*
Y133007D01*
X378735Y104707D02*
X378735Y107607D01*
X378735Y109906D02*
Y110506D01*
Y113206D02*
Y113706D01*
Y114607D02*
X378735Y115207D01*
X378735Y116107D02*
Y133006D01*
X378835Y109806D02*
X378835Y110607D01*
X378835Y113207D02*
Y113707D01*
X378835Y104707D02*
X378834Y107706D01*
X378835Y114607D02*
X378835Y115207D01*
X378835Y116107D02*
Y133007D01*
X378935Y104707D02*
Y107907D01*
Y112307D02*
Y112406D01*
Y113307D02*
Y113707D01*
Y114606D02*
Y115206D01*
Y116107D02*
Y133007D01*
X378935Y109607D02*
X378935Y110707D01*
X379035Y104707D02*
X379034Y108107D01*
X379035Y112107D02*
X379035Y133007D01*
X379035Y109507D02*
X379035Y110807D01*
X379135Y104706D02*
Y108506D01*
Y109106D02*
Y111207D01*
Y111707D02*
Y133007D01*
X379235Y104707D02*
X379235Y133007D01*
X379335Y104707D02*
Y133007D01*
X379435Y104707D02*
Y133007D01*
X379535Y104707D02*
X379534Y133007D01*
X379635Y104706D02*
Y133007D01*
X379735Y104707D02*
X379735Y133007D01*
X379835Y104707D02*
Y133007D01*
X379935Y104707D02*
Y133007D01*
X380035Y104707D02*
Y133006D01*
X380135Y104706D02*
Y133007D01*
X380235Y104707D02*
X380235Y133007D01*
X380335Y104707D02*
Y133007D01*
X380435Y104707D02*
Y133007D01*
X380535Y104707D02*
Y133006D01*
X380635Y104707D02*
X380635Y133007D01*
X380735Y104707D02*
X380735Y133007D01*
X380835Y104707D02*
Y133007D01*
X380935Y104706D02*
Y133007D01*
X381035Y104707D02*
Y133006D01*
X381135Y104707D02*
X381135Y133007D01*
X381235Y104707D02*
Y133007D01*
X381335Y104707D02*
Y133007D01*
X381435Y104706D02*
Y133007D01*
X381535Y104707D02*
Y133006D01*
X381635Y104707D02*
X381634Y133007D01*
X381735Y104707D02*
Y133007D01*
X381835Y104707D02*
X381835Y133007D01*
X381935Y104706D02*
Y133007D01*
D02*
D24*
X116672Y49191D02*
X137172D01*
X137170Y56689D02*
Y49209D01*
X142989Y54699D02*
X143619Y54384D01*
X144563*
X145193Y54699*
X145508Y55329*
Y55644*
X145193Y56274*
X144563Y56589*
X142989*
Y58163*
X145508*
X148343Y54699D02*
X148973Y54384D01*
X149603*
X150233Y54699*
X150548Y55329*
Y57219*
X150233Y57848*
X149603Y58163*
X148973*
X148343Y57848*
X148028Y57219*
Y55329*
X148343Y54699*
X150233Y57848*
X160639Y159914D02*
Y155189D01*
X149221*
Y159914*
X160639*
X160835Y164835D02*
Y161292D01*
X168658Y191602D02*
G75*
G02Y191996J197D01*
G01*
G75*
G03Y191602J-197*
G01*
Y191996D02*
G75*
G02Y191602J-197D01*
G01*
Y191996D02*
X210020Y187887*
X181248D01*
X211398Y186903D02*
X257461D01*
Y155407*
X211398*
Y186903*
X252362Y81086D02*
X215748D01*
Y117700*
X252362*
Y81086*
X277241Y158347D02*
Y185135D01*
X347729*
Y158347*
X277241*
X277327Y149398D02*
Y156969D01*
X340263Y133019D02*
X334967D01*
Y72428*
X345558*
Y127724*
X362627Y135957D02*
X358198D01*
X360413Y137802*
X358198Y139648*
X362627*
X361520Y141862D02*
X362258Y142231D01*
X362627Y142970*
Y144446*
X362258Y145184*
X361520Y145553*
X360782Y145184*
X360413Y144446*
Y142970*
X360044Y142231*
X359306Y141862*
X358567Y142231*
X358198Y142970*
Y144446*
X358567Y145184*
X359306Y145553*
X362627Y147768D02*
X358198Y151459D01*
Y147768D02*
X362627Y151459D01*
X360413Y160686D02*
Y161424D01*
X360044Y162163*
X359306Y162531*
X358567Y162163*
X358198Y161424*
Y160686*
X358567Y159948*
X359306Y159579*
X360044Y159948*
X360413Y160686*
X360782Y159948*
X361520Y159579*
X362258Y159948*
X362627Y160686*
Y161424*
X362258Y162163*
X361520Y162531*
X360782Y162163*
X360413Y161424*
X362627Y165484D02*
X358198D01*
X360413D02*
Y166592D01*
X358198Y169175*
X360413Y166592D02*
X362627Y169175D01*
X360413Y179879D02*
X360782Y180617D01*
X361520Y180986*
X362258Y180617*
X362627Y179879*
Y177295*
X358198*
Y179879*
X358567Y180617*
X359306Y180986*
X360044Y180617*
X360413Y179879*
Y177295*
X362627Y183201D02*
X358198Y185046D01*
X362627Y186892*
X360782Y183939D02*
Y186154D01*
X362627Y189106D02*
X358198D01*
X362627Y192797*
X358198*
X362627Y195012D02*
X358198D01*
X360413D02*
Y196119D01*
X358198Y198703*
X360413Y196119D02*
X362627Y198703D01*
X369714Y135957D02*
X365285D01*
Y138541*
X365654Y139279*
X366392Y139648*
X367130Y139279*
X367499Y138541*
Y135957*
Y138541D02*
X369714Y139648D01*
X368237Y141862D02*
X366761D01*
X366023Y142231*
X365654Y142600*
X365285Y143339*
Y144077*
X365654Y144815*
X366023Y145184*
X366761Y145553*
X368237*
X368976Y145184*
X369345Y144815*
X369714Y144077*
Y143339*
X369345Y142600*
X368976Y142231*
X368237Y141862*
X369714Y147768D02*
X365285D01*
X367499Y149613*
X365285Y151459*
X369714*
X368976Y163270D02*
X369345Y162901D01*
X369714Y162163*
Y161055*
X369345Y160317*
X368976Y159948*
X368237Y159579*
X366761*
X366023Y159948*
X365654Y160317*
X365285Y161055*
Y162163*
X365654Y162901*
X366023Y163270*
X367130Y165484D02*
X366761Y166222D01*
Y167330*
X367130Y168068*
X367869Y168437*
X368976*
X369345Y168068*
X369714Y167330*
Y166592*
X369345Y165854*
X368976Y165484*
X368607*
X368237Y165854*
X367869Y166592*
Y167330*
X368237Y168068*
X368607Y168437*
X368976D02*
X369714D01*
Y171390D02*
X366761D01*
X367869D02*
X367130Y171759D01*
X366761Y172497*
Y173235*
X367130Y173974*
X366761Y177911D02*
Y179633D01*
X366023Y178772D02*
X369345D01*
X369714Y179141*
Y179510*
X369345Y179879*
X369714Y183201D02*
X366761D01*
X367869D02*
X367130Y183570D01*
X366761Y184308*
Y185046*
X367130Y185785*
X369714Y190583D02*
X366761D01*
X365654D02*
X367869Y197965*
X367130Y197596D01*
X366761Y196857*
Y196119*
X367130Y195381*
X367869Y195012*
X368607*
X369345Y195381*
X369714Y196119*
Y196857*
X369345Y197596*
X368607Y197965*
X369714D02*
X365285D01*
X367869Y203870D02*
X367130Y203501D01*
X366761Y202763*
Y202025*
X367130Y201287*
X367869Y200917*
X368237*
X368976Y201287*
X369345Y202025*
Y202763*
X368976Y203501*
X368237Y203870*
X366761D02*
X369714D01*
X370452Y203501*
X370821Y202763*
Y201656*
X370452Y200917*
X369345Y209776D02*
X369714Y209407D01*
Y208669*
Y207930*
X369345Y207192*
X368607Y206823*
X367499*
X367130Y207192*
X366761Y207930*
Y208669*
X367130Y209407*
X367499Y209776*
X367869*
X368237Y209407*
X368607Y208669*
Y207930*
X368237Y207192*
X367869Y206823*
X376800Y137802D02*
X372371D01*
Y135957D02*
Y139648D01*
X373848Y141862D02*
X375324Y142231D01*
X376062Y142970*
Y143708*
X375324Y144446*
X373848Y144815*
X375324Y144446D02*
X376800Y144077D01*
X377539Y143708*
X377908Y142970*
X377539Y142231*
X373848Y147768D02*
X377908D01*
X375693D02*
X376431Y148137D01*
X376800Y148875*
Y149613*
X376431Y150352*
X375693Y150720*
X374955*
X374217Y150352*
X373848Y149613*
Y148875*
X374217Y148137*
X374955Y147768*
X375693*
X376431Y156626D02*
X376800Y156257D01*
Y155519*
Y154781*
X376431Y154043*
X375693Y153673*
X374586*
X374217Y154043*
X373848Y154781*
Y155519*
X374217Y156257*
X374586Y156626*
X374955*
X375324Y156257*
X375693Y155519*
Y154781*
X375324Y154043*
X374955Y153673*
X376800Y165484D02*
X372371D01*
X374586D02*
Y166592D01*
X372371Y169175*
X374586Y166592D02*
X376800Y169175D01*
Y171390D02*
X372371Y175081D01*
X376800Y177295D02*
X372371D01*
X374586D02*
Y178403D01*
X372371Y180986*
X374586Y178403D02*
X376800Y180986D01*
Y186154D02*
Y183201D01*
X374217Y185785*
X373479Y186154*
X372741Y185785*
X372371Y185046*
Y183939*
X372741Y183201*
X390508Y51884D02*
X387989D01*
X390193Y54089*
X390508Y54719*
X390193Y55348*
X389563Y55663*
X388619*
X387989Y55348*
X394739Y56689D02*
Y49209D01*
X415239Y49189D02*
X394739D01*
D02*
D25*
X257185Y78921D02*
G75*
G02X258760I787D01*
G01*
X257185D02*
G75*
G02X258760I787D01*
G01*
G75*
G02X257185I-787*
G01*
D02*
D26*
X150278Y172624D02*
Y177924D01*
X162578*
Y172624*
X150278*
Y180486D02*
Y185786D01*
X162578*
Y180486*
X150278*
X150527Y131439D02*
Y136739D01*
X162827*
Y131439*
X150527*
X162702Y144851D02*
Y139551D01*
X150402*
Y144851*
X162702*
X169877Y185542D02*
X175177D01*
Y173242*
X169877*
Y185542*
X198207Y115153D02*
X203507D01*
Y102853*
X198207*
Y115153*
X262476Y196960D02*
Y202260D01*
X274776*
Y196960*
X262476*
D02*
D108*
X177769Y206935D02*
Y210774D01*
X180008*
X180648Y210454*
X180968Y209814*
X180648Y209174*
X180008Y208854*
X177769*
X180008D02*
X180968Y206935D01*
X182887Y208215D02*
Y209494D01*
X183207Y210134*
X183527Y210454*
X184167Y210774*
X184806*
X185446Y210454*
X185766Y210134*
X186086Y209494*
Y208215*
X185766Y207575*
X185446Y207255*
X184806Y206935*
X184167*
X183527Y207255*
X183207Y207575*
X182887Y208215*
X188005Y206935D02*
Y210774D01*
X189605Y208854*
X191204Y210774*
Y206935*
X178143Y197824D02*
Y201663D01*
X181342*
X180702Y199744D02*
X178143D01*
Y197824D02*
X181342D01*
X183261D02*
Y201663D01*
X186460Y197824*
Y201663*
D02*
D116*
X141099Y196524D02*
Y210303*
X144052Y196524*
X153894*
Y210303*
X141099D01*
Y196524*
X144052*
X153894Y210303D02*
X141099D01*
Y196524*
X144052*
X161375Y213846D02*
Y217783*
Y218177*
X163737Y196524*
X153894D01*
X163737D02*
X153894D01*
X163737Y210303D02*
X167280D01*
Y218177*
X161375*
Y213846*
X163737Y210303D02*
X167280D01*
Y218177*
X161375*
Y213846*
X163737Y210303D02*
X167280*
Y218177*
X173580Y196524*
X176532D01*
Y210303*
X163737*
X173580Y196524D02*
X176532D01*
Y210303*
X163737*
X176532Y196524D02*
Y210303*
X0Y0*
M02*
