G04 #@! TF.Part,Single*
G04 #@! TF.FileFunction,Soldermask,Top *
G04 #@! TF.FilePolarity,Negative *
%FSLAX35Y35*%
%MOIN*%
G04 #@! TA.AperFunction,SMDPad,CuDef*
%AMT125*0 Bullet Pad at angle 90*21,1,0.06079,0.03039,0,0,90*%
%ADD125T125*%
%ADD92R,0.05197X0.01063*%
%ADD91R,0.28819X0.01063*%
%ADD95R,0.02441X0.03622*%
%ADD83R,0.02441X0.05886*%
%ADD93R,0.02638X0.07646*%
%ADD126R,0.04079X0.02279*%
%ADD82R,0.05886X0.02441*%
%ADD86R,0.04016X0.04370*%
%ADD88R,0.04019X0.04409*%
%ADD90R,0.06772X0.29606*%
%ADD89R,0.06772X0.35512*%
G04 #@! TA.AperFunction,ComponentPad*
%ADD84R,0.06575X0.06575*%
G04 #@! TD.AperFunction*
%ADD10C,0.00500*%
G04 #@! TA.AperFunction,ComponentPad*
%ADD122C,0.05197*%
G04 #@! TA.AperFunction,SMDPad,CuDef*
%ADD124C,0.06079*%
G04 #@! TA.AperFunction,ComponentPad*
%ADD85C,0.06575*%
G04 #@! TA.AperFunction,SMDPad,CuDef*
%ADD94R,0.04370X0.04016*%
%ADD87R,0.04409X0.04019*%
%AMT123*0 Bullet Pad at angle 270*21,1,0.06079,0.03039,0,0,270*%
%ADD123T123*%
G04 #@! TA.AperFunction,WasherPad*
%ADD132R,2.57639X0.39371*%
X0Y0D02*
D02*
D10*
X142450Y9569D02*
X389310D01*
G75*
G03X394807Y15066J5497*
G01*
Y214707*
X137170*
Y14849*
G75*
G03X142450Y9569I5280*
G01*
D02*
D82*
X211465Y83645D03*
Y86795D03*
Y89944D03*
Y93094D03*
Y96244D03*
Y99393D03*
Y102543D03*
Y105693D03*
Y108842D03*
Y111992D03*
Y115141D03*
X256646Y83645D03*
Y86795D03*
Y89944D03*
Y93094D03*
Y96244D03*
Y99393D03*
Y102543D03*
Y105693D03*
Y108842D03*
Y111992D03*
Y115141D03*
D02*
D83*
X218307Y76803D03*
Y121984D03*
X221457Y76803D03*
Y121984D03*
X224606Y76803D03*
Y121984D03*
X227756Y76803D03*
Y121984D03*
X230906Y76803D03*
Y121984D03*
X234055Y76803D03*
Y121984D03*
X237205Y76803D03*
Y121984D03*
X240354Y76803D03*
Y121984D03*
X243504Y76803D03*
Y121984D03*
X246654Y76803D03*
Y121984D03*
X249803Y76803D03*
Y121984D03*
D02*
D84*
X340263Y127724D03*
D02*
D85*
Y77724D03*
Y87724D03*
Y97724D03*
Y107724D03*
Y117724D03*
D02*
D86*
X191622Y105753D03*
Y112753D03*
D02*
D87*
X172527Y175892D03*
Y182892D03*
X200857Y105503D03*
Y112503D03*
D02*
D88*
X152928Y175274D03*
Y183136D03*
X153052Y142201D03*
X153177Y134089D03*
X159928Y175274D03*
Y183136D03*
X160052Y142201D03*
X160177Y134089D03*
X265126Y199610D03*
X272126D03*
D02*
D91*
X195650Y156391D03*
Y158360D03*
Y160328D03*
Y162297D03*
Y164265D03*
Y166234D03*
Y168202D03*
Y170171D03*
Y172139D03*
Y174108D03*
Y176076D03*
Y178045D03*
Y180013D03*
Y181982D03*
Y183950D03*
Y185919D03*
D02*
D92*
X261398Y156391D03*
Y158360D03*
Y160328D03*
Y162297D03*
Y164265D03*
Y166234D03*
Y168202D03*
Y170171D03*
Y172139D03*
Y174108D03*
Y176076D03*
Y178045D03*
Y180013D03*
Y181982D03*
Y183950D03*
Y185919D03*
D02*
D93*
X279985Y153182D03*
Y190300D03*
X284985Y153182D03*
Y190300D03*
X289985Y153182D03*
Y190300D03*
X294985Y153182D03*
Y190300D03*
X299985Y153182D03*
Y190300D03*
X304985Y153182D03*
Y190300D03*
X309985Y153182D03*
Y190300D03*
X314985Y153182D03*
Y190300D03*
X319985Y153182D03*
Y190300D03*
X324985Y153182D03*
Y190300D03*
X329985Y153182D03*
Y190300D03*
X334985Y153182D03*
Y190300D03*
X339985Y153182D03*
Y190300D03*
X344985Y153182D03*
Y190300D03*
D02*
D94*
X208091Y68692D03*
X215091D03*
X221569D03*
X228569D03*
X279977Y199735D03*
X286977D03*
D02*
D95*
X151190Y152040D03*
Y163063D03*
X154930D03*
X158670Y152040D03*
Y163063D03*
D02*
D122*
X148973Y197114D03*
X158816Y209713D03*
X168658Y197114D03*
D02*
D123*
X216685Y132841D03*
D02*
D124*
X218205D03*
D02*
D125*
X212225D03*
D02*
D124*
X210705D03*
D02*
D126*
X214455D03*
D02*
D132*
X266005Y29254D03*
X0Y0D02*
M02*
