G05
M48
INCH,TZ
FMAT,2
T1C000.01181
T2C000.01600
T3C000.03150
T4C000.04331
T5C000.15748
T6C000.18504
%
T001
X1.60177Y1.28472
X1.72652Y1.64915
X1.75273Y1.67411
X1.77894Y1.64915
X1.99485Y0.99393
X2.01606Y0.60080
X2.03104Y0.86795
X2.03354Y0.93094
X2.03728Y0.99393
X2.06099Y0.96244
X2.06099Y1.02543
X2.06099Y1.11992
X2.11840Y0.59706
X2.12589Y1.74774
X2.12839Y1.48191
X2.15584Y1.77520
X2.17706Y1.45321
X2.18580Y1.80013
X2.21076Y0.59456
X2.21450Y1.83760
X2.21457Y1.16616
X2.24606Y1.14120
X2.24695Y1.81514
X2.27756Y1.16616
X2.27815Y1.79267
X2.30906Y1.14245
X2.30935Y1.76896
X2.31185Y0.59331
X2.36426Y0.70189
X2.37205Y0.84791
X2.37205Y1.16741
X2.37300Y1.73776
X2.40354Y0.81921
X2.41543Y0.56960
X2.43504Y0.84791
X2.43504Y1.16741
X2.43504Y1.68160
X2.46654Y0.81921
X2.46654Y1.14120
X2.46660Y1.65289
X2.48532Y1.83760
X2.49780Y1.62669
X2.49803Y0.84667
X2.49803Y1.16741
X2.51278Y0.56960
X2.52027Y1.83760
X2.55646Y1.83885
X2.55989Y0.56960
X2.61137Y0.80423
X2.63134Y0.76929
X2.63259Y0.83419
X2.65006Y1.45196
X2.65131Y1.11374
X2.65989Y0.56960
X2.68002Y0.89944
X2.70498Y1.38207
X2.70622Y0.96148
X2.73243Y0.86788
X2.73243Y1.40703
X2.75989Y0.60580
X2.78735Y0.69940
X2.78984Y1.45695
X2.79109Y1.28348
X2.81231Y0.57085
X2.81855Y1.42950
X2.83727Y0.69940
X2.87221Y1.40329
X2.89093Y0.66695
X2.89985Y1.47193
X2.91714Y0.57335
X2.91964Y1.99735
X2.92588Y1.36834
X2.93461Y1.84634
X2.94985Y1.47193
X2.97206Y0.63700
X2.97206Y0.69940
X2.97580Y1.33090
X2.97580Y1.83885
X2.99985Y1.47193
X3.01449Y1.82762
X3.04985Y0.75681
X3.04985Y1.47193
X3.10185Y0.75681
X3.10934Y0.56711
X3.13180Y0.99393
X3.13929Y1.80016
X3.16051Y1.05693
X3.20419Y0.62701
X3.20419Y1.02389
X3.25989Y0.56835
T002
X1.44985Y0.62207
X1.44985Y0.77207
X1.44985Y1.24707
X1.44985Y1.44707
X1.44985Y1.64707
X1.44985Y1.84707
X1.44985Y2.04707
X1.51560Y1.57427
X1.54930Y0.77178
X1.64665Y1.63043
X1.65413Y1.79143
X1.72527Y1.88628
X1.76022Y0.60455
X1.81887Y0.70065
X1.82511Y1.32217
X1.82511Y1.42700
X1.84985Y2.04707
X1.86006Y0.60205
X1.87254Y0.80174
X1.91872Y0.70065
X1.97238Y0.80174
X2.01481Y1.32217
X2.01481Y1.42326
X2.24985Y2.04707
X2.34055Y1.27724
X2.34180Y1.60297
X2.34305Y1.41951
X2.40545Y1.41951
X2.40545Y1.60297
X2.43790Y0.93028
X2.50529Y0.93028
X2.53150Y1.72154
X2.56145Y1.40953
X2.61886Y1.33964
X2.64985Y2.04707
X2.72120Y1.94743
X3.04985Y2.04707
X3.27533Y1.32716
X3.27533Y1.42450
X3.44943Y1.74400
X3.44985Y1.44707
X3.44985Y2.04707
X3.59981Y0.64573
X3.59981Y0.84417
X3.84985Y1.04707
X3.84985Y1.24707
X3.84985Y1.44707
X3.84985Y1.64707
X3.84985Y1.84707
X3.84985Y2.04707
T003
X1.48973Y1.97114
X1.58816Y2.09713
X1.68658Y1.97114
T004
X3.40263Y0.77724
X3.40263Y0.87724
X3.40263Y0.97724
X3.40263Y1.07724
X3.40263Y1.17724
X3.40263Y1.27724
T005
X1.56264Y1.07994
X3.75713Y0.88309
T006
X1.55437Y0.91459
X3.76540Y0.72561
M30
